G04 #@! TF.GenerationSoftware,KiCad,Pcbnew,5.1.0-rc2-unknown-036be7d~80~ubuntu16.04.1*
G04 #@! TF.CreationDate,2022-06-17T14:25:57+03:00*
G04 #@! TF.ProjectId,RT1010Py-DevKit_RevB,52543130-3130-4507-992d-4465764b6974,B*
G04 #@! TF.SameCoordinates,Original*
G04 #@! TF.FileFunction,Paste,Top*
G04 #@! TF.FilePolarity,Positive*
%FSLAX46Y46*%
G04 Gerber Fmt 4.6, Leading zero omitted, Abs format (unit mm)*
G04 Created by KiCad (PCBNEW 5.1.0-rc2-unknown-036be7d~80~ubuntu16.04.1) date 2022-06-17 14:25:57*
%MOMM*%
%LPD*%
G04 APERTURE LIST*
%ADD10R,0.500000X0.550000*%
%ADD11C,1.700000*%
%ADD12C,0.100000*%
%ADD13R,0.550000X0.500000*%
%ADD14R,0.800000X0.800000*%
%ADD15R,1.098400X1.098400*%
%ADD16R,1.016000X1.016000*%
%ADD17R,0.960000X1.470000*%
%ADD18R,1.400000X1.000000*%
%ADD19R,1.130000X0.230000*%
%ADD20R,1.130000X0.280000*%
%ADD21R,0.904000X1.304000*%
G04 APERTURE END LIST*
D10*
X108458000Y-117729000D03*
X107442000Y-117729000D03*
D11*
X102362000Y-127712000D03*
D12*
G36*
X101512000Y-129987000D02*
G01*
X101512000Y-125437000D01*
X103212000Y-125437000D01*
X103212000Y-129987000D01*
X101512000Y-129987000D01*
X101512000Y-129987000D01*
G37*
D11*
X104902000Y-127712000D03*
D12*
G36*
X104052000Y-129987000D02*
G01*
X104052000Y-125437000D01*
X105752000Y-125437000D01*
X105752000Y-129987000D01*
X104052000Y-129987000D01*
X104052000Y-129987000D01*
G37*
D11*
X107442000Y-127712000D03*
D12*
G36*
X106592000Y-129987000D02*
G01*
X106592000Y-125437000D01*
X108292000Y-125437000D01*
X108292000Y-129987000D01*
X106592000Y-129987000D01*
X106592000Y-129987000D01*
G37*
D11*
X109982000Y-127712000D03*
D12*
G36*
X109132000Y-129987000D02*
G01*
X109132000Y-125437000D01*
X110832000Y-125437000D01*
X110832000Y-129987000D01*
X109132000Y-129987000D01*
X109132000Y-129987000D01*
G37*
D11*
X112522000Y-127712000D03*
D12*
G36*
X111672000Y-129987000D02*
G01*
X111672000Y-125437000D01*
X113372000Y-125437000D01*
X113372000Y-129987000D01*
X111672000Y-129987000D01*
X111672000Y-129987000D01*
G37*
D11*
X112522000Y-121462000D03*
D12*
G36*
X111672000Y-123737000D02*
G01*
X111672000Y-119187000D01*
X113372000Y-119187000D01*
X113372000Y-123737000D01*
X111672000Y-123737000D01*
X111672000Y-123737000D01*
G37*
D11*
X109982000Y-121462000D03*
D12*
G36*
X109132000Y-123737000D02*
G01*
X109132000Y-119187000D01*
X110832000Y-119187000D01*
X110832000Y-123737000D01*
X109132000Y-123737000D01*
X109132000Y-123737000D01*
G37*
D11*
X102362000Y-121462000D03*
D12*
G36*
X101512000Y-123737000D02*
G01*
X101512000Y-119187000D01*
X103212000Y-119187000D01*
X103212000Y-123737000D01*
X101512000Y-123737000D01*
X101512000Y-123737000D01*
G37*
D11*
X104902000Y-121462000D03*
D12*
G36*
X104052000Y-123737000D02*
G01*
X104052000Y-119187000D01*
X105752000Y-119187000D01*
X105752000Y-123737000D01*
X104052000Y-123737000D01*
X104052000Y-123737000D01*
G37*
D11*
X107442000Y-121462000D03*
D12*
G36*
X106592000Y-123737000D02*
G01*
X106592000Y-119187000D01*
X108292000Y-119187000D01*
X108292000Y-123737000D01*
X106592000Y-123737000D01*
X106592000Y-123737000D01*
G37*
D11*
X81534000Y-127712000D03*
D12*
G36*
X80684000Y-129987000D02*
G01*
X80684000Y-125437000D01*
X82384000Y-125437000D01*
X82384000Y-129987000D01*
X80684000Y-129987000D01*
X80684000Y-129987000D01*
G37*
D11*
X84074000Y-127712000D03*
D12*
G36*
X83224000Y-129987000D02*
G01*
X83224000Y-125437000D01*
X84924000Y-125437000D01*
X84924000Y-129987000D01*
X83224000Y-129987000D01*
X83224000Y-129987000D01*
G37*
D11*
X86614000Y-127712000D03*
D12*
G36*
X85764000Y-129987000D02*
G01*
X85764000Y-125437000D01*
X87464000Y-125437000D01*
X87464000Y-129987000D01*
X85764000Y-129987000D01*
X85764000Y-129987000D01*
G37*
D11*
X89154000Y-127712000D03*
D12*
G36*
X88304000Y-129987000D02*
G01*
X88304000Y-125437000D01*
X90004000Y-125437000D01*
X90004000Y-129987000D01*
X88304000Y-129987000D01*
X88304000Y-129987000D01*
G37*
D11*
X91694000Y-127712000D03*
D12*
G36*
X90844000Y-129987000D02*
G01*
X90844000Y-125437000D01*
X92544000Y-125437000D01*
X92544000Y-129987000D01*
X90844000Y-129987000D01*
X90844000Y-129987000D01*
G37*
D11*
X91694000Y-121462000D03*
D12*
G36*
X90844000Y-123737000D02*
G01*
X90844000Y-119187000D01*
X92544000Y-119187000D01*
X92544000Y-123737000D01*
X90844000Y-123737000D01*
X90844000Y-123737000D01*
G37*
D11*
X89154000Y-121462000D03*
D12*
G36*
X88304000Y-123737000D02*
G01*
X88304000Y-119187000D01*
X90004000Y-119187000D01*
X90004000Y-123737000D01*
X88304000Y-123737000D01*
X88304000Y-123737000D01*
G37*
D11*
X81534000Y-121462000D03*
D12*
G36*
X80684000Y-123737000D02*
G01*
X80684000Y-119187000D01*
X82384000Y-119187000D01*
X82384000Y-123737000D01*
X80684000Y-123737000D01*
X80684000Y-123737000D01*
G37*
D11*
X84074000Y-121462000D03*
D12*
G36*
X83224000Y-123737000D02*
G01*
X83224000Y-119187000D01*
X84924000Y-119187000D01*
X84924000Y-123737000D01*
X83224000Y-123737000D01*
X83224000Y-123737000D01*
G37*
D11*
X86614000Y-121462000D03*
D12*
G36*
X85764000Y-123737000D02*
G01*
X85764000Y-119187000D01*
X87464000Y-119187000D01*
X87464000Y-123737000D01*
X85764000Y-123737000D01*
X85764000Y-123737000D01*
G37*
D13*
X123317000Y-122174000D03*
X123317000Y-121158000D03*
X123317000Y-118872000D03*
X123317000Y-119888000D03*
X120142000Y-71374000D03*
X120142000Y-72390000D03*
X73914000Y-71374000D03*
X73914000Y-72390000D03*
D14*
X120142000Y-69850000D03*
X120142000Y-68326000D03*
X73914000Y-69850000D03*
X73914000Y-68326000D03*
D15*
X104918000Y-96139000D03*
X108188000Y-96139000D03*
X83042000Y-96139000D03*
X79772000Y-96139000D03*
D16*
X70485000Y-118491000D03*
X70485000Y-116713000D03*
X80264000Y-131699000D03*
X82042000Y-131699000D03*
X102362000Y-131699000D03*
X100584000Y-131699000D03*
D13*
X120142000Y-75692000D03*
X120142000Y-76708000D03*
X120142000Y-73533000D03*
X120142000Y-74549000D03*
D10*
X79756000Y-103886000D03*
X80772000Y-103886000D03*
X79756000Y-102743000D03*
X80772000Y-102743000D03*
D17*
X118618000Y-80010000D03*
X119888000Y-80010000D03*
X121158000Y-80010000D03*
X122428000Y-80010000D03*
X122428000Y-87630000D03*
X121158000Y-87630000D03*
X119888000Y-87630000D03*
X118618000Y-87630000D03*
D18*
X87086440Y-97088960D03*
X87086440Y-95186500D03*
X84876640Y-96141540D03*
X100873560Y-95189040D03*
X100873560Y-97091500D03*
X103083360Y-96136460D03*
D19*
X77211000Y-101501000D03*
X77211000Y-102001000D03*
X77211000Y-102501000D03*
X77211000Y-105001000D03*
X77211000Y-103501000D03*
X77211000Y-104501000D03*
X77211000Y-104001000D03*
X77211000Y-103001000D03*
D20*
X77211000Y-100976000D03*
X77211000Y-105526000D03*
X77211000Y-100726000D03*
X77211000Y-105776000D03*
X77211000Y-100176000D03*
X77211000Y-106326000D03*
X77211000Y-99926000D03*
X77211000Y-106576000D03*
D21*
X72830000Y-83269000D03*
X72830000Y-87419000D03*
X70680000Y-83269000D03*
X70680000Y-87419000D03*
X72830000Y-74379000D03*
X72830000Y-78529000D03*
X70680000Y-74379000D03*
X70680000Y-78529000D03*
D10*
X85598000Y-131445000D03*
X86614000Y-131445000D03*
X108458000Y-131445000D03*
X107442000Y-131445000D03*
X87757000Y-117729000D03*
X86741000Y-117729000D03*
M02*
