G04 #@! TF.GenerationSoftware,KiCad,Pcbnew,5.1.0-rc2-unknown-036be7d~80~ubuntu16.04.1*
G04 #@! TF.CreationDate,2022-06-17T14:25:57+03:00*
G04 #@! TF.ProjectId,RT1010Py-DevKit_RevB,52543130-3130-4507-992d-4465764b6974,B*
G04 #@! TF.SameCoordinates,Original*
G04 #@! TF.FileFunction,Legend,Top*
G04 #@! TF.FilePolarity,Positive*
%FSLAX46Y46*%
G04 Gerber Fmt 4.6, Leading zero omitted, Abs format (unit mm)*
G04 Created by KiCad (PCBNEW 5.1.0-rc2-unknown-036be7d~80~ubuntu16.04.1) date 2022-06-17 14:25:57*
%MOMM*%
%LPD*%
G04 APERTURE LIST*
%ADD10C,0.254000*%
%ADD11C,0.100000*%
%ADD12C,0.381000*%
%ADD13C,0.400000*%
%ADD14C,0.700000*%
%ADD15C,0.500000*%
%ADD16C,0.300000*%
%ADD17C,0.127000*%
%ADD18C,0.050000*%
%ADD19C,0.150000*%
%ADD20C,0.200000*%
%ADD21C,0.190500*%
G04 APERTURE END LIST*
D10*
X78274333Y-63324619D02*
X78903285Y-63324619D01*
X78564619Y-63711666D01*
X78709761Y-63711666D01*
X78806523Y-63760047D01*
X78854904Y-63808428D01*
X78903285Y-63905190D01*
X78903285Y-64147095D01*
X78854904Y-64243857D01*
X78806523Y-64292238D01*
X78709761Y-64340619D01*
X78419476Y-64340619D01*
X78322714Y-64292238D01*
X78274333Y-64243857D01*
X98086333Y-63324619D02*
X98715285Y-63324619D01*
X98376619Y-63711666D01*
X98521761Y-63711666D01*
X98618523Y-63760047D01*
X98666904Y-63808428D01*
X98715285Y-63905190D01*
X98715285Y-64147095D01*
X98666904Y-64243857D01*
X98618523Y-64292238D01*
X98521761Y-64340619D01*
X98231476Y-64340619D01*
X98134714Y-64292238D01*
X98086333Y-64243857D01*
X95921285Y-64340619D02*
X95340714Y-64340619D01*
X95631000Y-64340619D02*
X95631000Y-63324619D01*
X95534238Y-63469761D01*
X95437476Y-63566523D01*
X95340714Y-63614904D01*
X115860285Y-64340619D02*
X115279714Y-64340619D01*
X115570000Y-64340619D02*
X115570000Y-63324619D01*
X115473238Y-63469761D01*
X115376476Y-63566523D01*
X115279714Y-63614904D01*
D11*
G36*
X70993000Y-93091000D02*
G01*
X69469000Y-93091000D01*
X69469000Y-90551000D01*
X70993000Y-90551000D01*
X70993000Y-93091000D01*
G37*
X70993000Y-93091000D02*
X69469000Y-93091000D01*
X69469000Y-90551000D01*
X70993000Y-90551000D01*
X70993000Y-93091000D01*
G36*
X70993000Y-115951000D02*
G01*
X69469000Y-115951000D01*
X69469000Y-113411000D01*
X70993000Y-113411000D01*
X70993000Y-115951000D01*
G37*
X70993000Y-115951000D02*
X69469000Y-115951000D01*
X69469000Y-113411000D01*
X70993000Y-113411000D01*
X70993000Y-115951000D01*
D10*
X121448285Y-76024619D02*
X120867714Y-76024619D01*
X121158000Y-76024619D02*
X121158000Y-75008619D01*
X121061238Y-75153761D01*
X120964476Y-75250523D01*
X120867714Y-75298904D01*
X119331619Y-123407714D02*
X119331619Y-123988285D01*
X119331619Y-123698000D02*
X118315619Y-123698000D01*
X118460761Y-123794761D01*
X118557523Y-123891523D01*
X118605904Y-123988285D01*
X70944619Y-124169714D02*
X70944619Y-124750285D01*
X70944619Y-124460000D02*
X69928619Y-124460000D01*
X70073761Y-124556761D01*
X70170523Y-124653523D01*
X70218904Y-124750285D01*
X73061285Y-112854619D02*
X72480714Y-112854619D01*
X72771000Y-112854619D02*
X72771000Y-111838619D01*
X72674238Y-111983761D01*
X72577476Y-112080523D01*
X72480714Y-112128904D01*
X73061285Y-94693619D02*
X72480714Y-94693619D01*
X72771000Y-94693619D02*
X72771000Y-93677619D01*
X72674238Y-93822761D01*
X72577476Y-93919523D01*
X72480714Y-93967904D01*
D12*
X88349666Y-110659333D02*
X87757000Y-109812666D01*
X87333666Y-110659333D02*
X87333666Y-108881333D01*
X88011000Y-108881333D01*
X88180333Y-108966000D01*
X88265000Y-109050666D01*
X88349666Y-109220000D01*
X88349666Y-109474000D01*
X88265000Y-109643333D01*
X88180333Y-109728000D01*
X88011000Y-109812666D01*
X87333666Y-109812666D01*
X89789000Y-110574666D02*
X89619666Y-110659333D01*
X89281000Y-110659333D01*
X89111666Y-110574666D01*
X89027000Y-110405333D01*
X89027000Y-109728000D01*
X89111666Y-109558666D01*
X89281000Y-109474000D01*
X89619666Y-109474000D01*
X89789000Y-109558666D01*
X89873666Y-109728000D01*
X89873666Y-109897333D01*
X89027000Y-110066666D01*
X90466333Y-109474000D02*
X90889666Y-110659333D01*
X91313000Y-109474000D01*
X91990333Y-110490000D02*
X92075000Y-110574666D01*
X91990333Y-110659333D01*
X91905666Y-110574666D01*
X91990333Y-110490000D01*
X91990333Y-110659333D01*
X93429666Y-109728000D02*
X93683666Y-109812666D01*
X93768333Y-109897333D01*
X93853000Y-110066666D01*
X93853000Y-110320666D01*
X93768333Y-110490000D01*
X93683666Y-110574666D01*
X93514333Y-110659333D01*
X92837000Y-110659333D01*
X92837000Y-108881333D01*
X93429666Y-108881333D01*
X93599000Y-108966000D01*
X93683666Y-109050666D01*
X93768333Y-109220000D01*
X93768333Y-109389333D01*
X93683666Y-109558666D01*
X93599000Y-109643333D01*
X93429666Y-109728000D01*
X92837000Y-109728000D01*
D10*
X96048285Y-132666619D02*
X95467714Y-132666619D01*
X95758000Y-132666619D02*
X95758000Y-131650619D01*
X95661238Y-131795761D01*
X95564476Y-131892523D01*
X95467714Y-131940904D01*
X101255285Y-130507619D02*
X100674714Y-130507619D01*
X100965000Y-130507619D02*
X100965000Y-129491619D01*
X100868238Y-129636761D01*
X100771476Y-129733523D01*
X100674714Y-129781904D01*
X70648285Y-132666619D02*
X70067714Y-132666619D01*
X70358000Y-132666619D02*
X70358000Y-131650619D01*
X70261238Y-131795761D01*
X70164476Y-131892523D01*
X70067714Y-131940904D01*
X80427285Y-130634619D02*
X79846714Y-130634619D01*
X80137000Y-130634619D02*
X80137000Y-129618619D01*
X80040238Y-129763761D01*
X79943476Y-129860523D01*
X79846714Y-129908904D01*
X91687952Y-103486857D02*
X91929857Y-104333523D01*
X92171761Y-103728761D01*
X92413666Y-104333523D01*
X92655571Y-103486857D01*
X93018428Y-103486857D02*
X93260333Y-104333523D01*
X93502238Y-103728761D01*
X93744142Y-104333523D01*
X93986047Y-103486857D01*
X94348904Y-103486857D02*
X94590809Y-104333523D01*
X94832714Y-103728761D01*
X95074619Y-104333523D01*
X95316523Y-103486857D01*
X95800333Y-104212571D02*
X95860809Y-104273047D01*
X95800333Y-104333523D01*
X95739857Y-104273047D01*
X95800333Y-104212571D01*
X95800333Y-104333523D01*
X96586523Y-104333523D02*
X96465571Y-104273047D01*
X96405095Y-104212571D01*
X96344619Y-104091619D01*
X96344619Y-103728761D01*
X96405095Y-103607809D01*
X96465571Y-103547333D01*
X96586523Y-103486857D01*
X96767952Y-103486857D01*
X96888904Y-103547333D01*
X96949380Y-103607809D01*
X97009857Y-103728761D01*
X97009857Y-104091619D01*
X96949380Y-104212571D01*
X96888904Y-104273047D01*
X96767952Y-104333523D01*
X96586523Y-104333523D01*
X97735571Y-104333523D02*
X97614619Y-104273047D01*
X97554142Y-104152095D01*
X97554142Y-103063523D01*
X98219380Y-104333523D02*
X98219380Y-103486857D01*
X98219380Y-103063523D02*
X98158904Y-103124000D01*
X98219380Y-103184476D01*
X98279857Y-103124000D01*
X98219380Y-103063523D01*
X98219380Y-103184476D01*
X98824142Y-104333523D02*
X98824142Y-103486857D01*
X98824142Y-103607809D02*
X98884619Y-103547333D01*
X99005571Y-103486857D01*
X99187000Y-103486857D01*
X99307952Y-103547333D01*
X99368428Y-103668285D01*
X99368428Y-104333523D01*
X99368428Y-103668285D02*
X99428904Y-103547333D01*
X99549857Y-103486857D01*
X99731285Y-103486857D01*
X99852238Y-103547333D01*
X99912714Y-103668285D01*
X99912714Y-104333523D01*
X101001285Y-104273047D02*
X100880333Y-104333523D01*
X100638428Y-104333523D01*
X100517476Y-104273047D01*
X100457000Y-104152095D01*
X100457000Y-103668285D01*
X100517476Y-103547333D01*
X100638428Y-103486857D01*
X100880333Y-103486857D01*
X101001285Y-103547333D01*
X101061761Y-103668285D01*
X101061761Y-103789238D01*
X100457000Y-103910190D01*
X101485095Y-104333523D02*
X102150333Y-103486857D01*
X101485095Y-103486857D02*
X102150333Y-104333523D01*
X102634142Y-104212571D02*
X102694619Y-104273047D01*
X102634142Y-104333523D01*
X102573666Y-104273047D01*
X102634142Y-104212571D01*
X102634142Y-104333523D01*
X103783190Y-104273047D02*
X103662238Y-104333523D01*
X103420333Y-104333523D01*
X103299380Y-104273047D01*
X103238904Y-104212571D01*
X103178428Y-104091619D01*
X103178428Y-103728761D01*
X103238904Y-103607809D01*
X103299380Y-103547333D01*
X103420333Y-103486857D01*
X103662238Y-103486857D01*
X103783190Y-103547333D01*
X104508904Y-104333523D02*
X104387952Y-104273047D01*
X104327476Y-104212571D01*
X104267000Y-104091619D01*
X104267000Y-103728761D01*
X104327476Y-103607809D01*
X104387952Y-103547333D01*
X104508904Y-103486857D01*
X104690333Y-103486857D01*
X104811285Y-103547333D01*
X104871761Y-103607809D01*
X104932238Y-103728761D01*
X104932238Y-104091619D01*
X104871761Y-104212571D01*
X104811285Y-104273047D01*
X104690333Y-104333523D01*
X104508904Y-104333523D01*
X105476523Y-104333523D02*
X105476523Y-103486857D01*
X105476523Y-103607809D02*
X105537000Y-103547333D01*
X105657952Y-103486857D01*
X105839380Y-103486857D01*
X105960333Y-103547333D01*
X106020809Y-103668285D01*
X106020809Y-104333523D01*
X106020809Y-103668285D02*
X106081285Y-103547333D01*
X106202238Y-103486857D01*
X106383666Y-103486857D01*
X106504619Y-103547333D01*
X106565095Y-103668285D01*
X106565095Y-104333523D01*
D12*
X88349666Y-107230333D02*
X87757000Y-106383666D01*
X87333666Y-107230333D02*
X87333666Y-105452333D01*
X88011000Y-105452333D01*
X88180333Y-105537000D01*
X88265000Y-105621666D01*
X88349666Y-105791000D01*
X88349666Y-106045000D01*
X88265000Y-106214333D01*
X88180333Y-106299000D01*
X88011000Y-106383666D01*
X87333666Y-106383666D01*
X88857666Y-105452333D02*
X89873666Y-105452333D01*
X89365666Y-107230333D02*
X89365666Y-105452333D01*
X91397666Y-107230333D02*
X90381666Y-107230333D01*
X90889666Y-107230333D02*
X90889666Y-105452333D01*
X90720333Y-105706333D01*
X90551000Y-105875666D01*
X90381666Y-105960333D01*
X92498333Y-105452333D02*
X92667666Y-105452333D01*
X92837000Y-105537000D01*
X92921666Y-105621666D01*
X93006333Y-105791000D01*
X93091000Y-106129666D01*
X93091000Y-106553000D01*
X93006333Y-106891666D01*
X92921666Y-107061000D01*
X92837000Y-107145666D01*
X92667666Y-107230333D01*
X92498333Y-107230333D01*
X92329000Y-107145666D01*
X92244333Y-107061000D01*
X92159666Y-106891666D01*
X92075000Y-106553000D01*
X92075000Y-106129666D01*
X92159666Y-105791000D01*
X92244333Y-105621666D01*
X92329000Y-105537000D01*
X92498333Y-105452333D01*
X94784333Y-107230333D02*
X93768333Y-107230333D01*
X94276333Y-107230333D02*
X94276333Y-105452333D01*
X94107000Y-105706333D01*
X93937666Y-105875666D01*
X93768333Y-105960333D01*
X95885000Y-105452333D02*
X96054333Y-105452333D01*
X96223666Y-105537000D01*
X96308333Y-105621666D01*
X96393000Y-105791000D01*
X96477666Y-106129666D01*
X96477666Y-106553000D01*
X96393000Y-106891666D01*
X96308333Y-107061000D01*
X96223666Y-107145666D01*
X96054333Y-107230333D01*
X95885000Y-107230333D01*
X95715666Y-107145666D01*
X95631000Y-107061000D01*
X95546333Y-106891666D01*
X95461666Y-106553000D01*
X95461666Y-106129666D01*
X95546333Y-105791000D01*
X95631000Y-105621666D01*
X95715666Y-105537000D01*
X95885000Y-105452333D01*
X97239666Y-107230333D02*
X97239666Y-105452333D01*
X97917000Y-105452333D01*
X98086333Y-105537000D01*
X98171000Y-105621666D01*
X98255666Y-105791000D01*
X98255666Y-106045000D01*
X98171000Y-106214333D01*
X98086333Y-106299000D01*
X97917000Y-106383666D01*
X97239666Y-106383666D01*
X98848333Y-106045000D02*
X99271666Y-107230333D01*
X99695000Y-106045000D02*
X99271666Y-107230333D01*
X99102333Y-107653666D01*
X99017666Y-107738333D01*
X98848333Y-107823000D01*
X100372333Y-106553000D02*
X101727000Y-106553000D01*
X102573666Y-107230333D02*
X102573666Y-105452333D01*
X102997000Y-105452333D01*
X103251000Y-105537000D01*
X103420333Y-105706333D01*
X103505000Y-105875666D01*
X103589666Y-106214333D01*
X103589666Y-106468333D01*
X103505000Y-106807000D01*
X103420333Y-106976333D01*
X103251000Y-107145666D01*
X102997000Y-107230333D01*
X102573666Y-107230333D01*
X105029000Y-107145666D02*
X104859666Y-107230333D01*
X104521000Y-107230333D01*
X104351666Y-107145666D01*
X104267000Y-106976333D01*
X104267000Y-106299000D01*
X104351666Y-106129666D01*
X104521000Y-106045000D01*
X104859666Y-106045000D01*
X105029000Y-106129666D01*
X105113666Y-106299000D01*
X105113666Y-106468333D01*
X104267000Y-106637666D01*
X105706333Y-106045000D02*
X106129666Y-107230333D01*
X106553000Y-106045000D01*
X107230333Y-107230333D02*
X107230333Y-105452333D01*
X108246333Y-107230333D02*
X107484333Y-106214333D01*
X108246333Y-105452333D02*
X107230333Y-106468333D01*
X109008333Y-107230333D02*
X109008333Y-106045000D01*
X109008333Y-105452333D02*
X108923666Y-105537000D01*
X109008333Y-105621666D01*
X109093000Y-105537000D01*
X109008333Y-105452333D01*
X109008333Y-105621666D01*
X109601000Y-106045000D02*
X110278333Y-106045000D01*
X109855000Y-105452333D02*
X109855000Y-106976333D01*
X109939666Y-107145666D01*
X110109000Y-107230333D01*
X110278333Y-107230333D01*
X100880333Y-111336666D02*
X100795666Y-111252000D01*
X100626333Y-110998000D01*
X100541666Y-110828666D01*
X100457000Y-110574666D01*
X100372333Y-110151333D01*
X100372333Y-109812666D01*
X100457000Y-109389333D01*
X100541666Y-109135333D01*
X100626333Y-108966000D01*
X100795666Y-108712000D01*
X100880333Y-108627333D01*
X102319666Y-110574666D02*
X102150333Y-110659333D01*
X101811666Y-110659333D01*
X101642333Y-110574666D01*
X101557666Y-110490000D01*
X101473000Y-110320666D01*
X101473000Y-109812666D01*
X101557666Y-109643333D01*
X101642333Y-109558666D01*
X101811666Y-109474000D01*
X102150333Y-109474000D01*
X102319666Y-109558666D01*
X102912333Y-111336666D02*
X102997000Y-111252000D01*
X103166333Y-110998000D01*
X103251000Y-110828666D01*
X103335666Y-110574666D01*
X103420333Y-110151333D01*
X103420333Y-109812666D01*
X103335666Y-109389333D01*
X103251000Y-109135333D01*
X103166333Y-108966000D01*
X102997000Y-108712000D01*
X102912333Y-108627333D01*
X104182333Y-109050666D02*
X104267000Y-108966000D01*
X104436333Y-108881333D01*
X104859666Y-108881333D01*
X105029000Y-108966000D01*
X105113666Y-109050666D01*
X105198333Y-109220000D01*
X105198333Y-109389333D01*
X105113666Y-109643333D01*
X104097666Y-110659333D01*
X105198333Y-110659333D01*
X106299000Y-108881333D02*
X106468333Y-108881333D01*
X106637666Y-108966000D01*
X106722333Y-109050666D01*
X106807000Y-109220000D01*
X106891666Y-109558666D01*
X106891666Y-109982000D01*
X106807000Y-110320666D01*
X106722333Y-110490000D01*
X106637666Y-110574666D01*
X106468333Y-110659333D01*
X106299000Y-110659333D01*
X106129666Y-110574666D01*
X106045000Y-110490000D01*
X105960333Y-110320666D01*
X105875666Y-109982000D01*
X105875666Y-109558666D01*
X105960333Y-109220000D01*
X106045000Y-109050666D01*
X106129666Y-108966000D01*
X106299000Y-108881333D01*
X107569000Y-109050666D02*
X107653666Y-108966000D01*
X107823000Y-108881333D01*
X108246333Y-108881333D01*
X108415666Y-108966000D01*
X108500333Y-109050666D01*
X108585000Y-109220000D01*
X108585000Y-109389333D01*
X108500333Y-109643333D01*
X107484333Y-110659333D01*
X108585000Y-110659333D01*
X109262333Y-109050666D02*
X109347000Y-108966000D01*
X109516333Y-108881333D01*
X109939666Y-108881333D01*
X110109000Y-108966000D01*
X110193666Y-109050666D01*
X110278333Y-109220000D01*
X110278333Y-109389333D01*
X110193666Y-109643333D01*
X109177666Y-110659333D01*
X110278333Y-110659333D01*
D10*
X107950000Y-118173500D02*
X107696000Y-118173500D01*
X107950000Y-118173500D02*
X108204000Y-118173500D01*
X107950000Y-117284500D02*
X108204000Y-117284500D01*
X107950000Y-117284500D02*
X107696000Y-117284500D01*
D13*
X91790147Y-100203000D02*
G75*
G03X91790147Y-100203000I-337447J0D01*
G01*
D14*
X91440000Y-99428300D02*
X91948000Y-98920300D01*
X93040200Y-98844100D02*
X93675200Y-99453700D01*
X93649800Y-101409500D02*
X93091000Y-101993700D01*
X95275400Y-102006400D02*
X94818200Y-101549200D01*
X96261200Y-102006400D02*
X95275400Y-102006400D01*
D13*
X97140324Y-101981000D02*
G75*
G03X97140324Y-101981000I-366324J0D01*
G01*
D14*
X96774000Y-99288600D02*
X96774000Y-100888800D01*
D13*
X97160218Y-98755200D02*
G75*
G03X97160218Y-98755200I-373518J0D01*
G01*
X98365559Y-101955600D02*
G75*
G03X98365559Y-101955600I-359659J0D01*
G01*
D14*
X97993200Y-101447600D02*
X97993200Y-98856800D01*
X97993200Y-98856800D02*
X98831400Y-98856800D01*
X98831400Y-98856800D02*
X99441000Y-99364800D01*
X99542600Y-100152200D02*
X99542600Y-99441000D01*
X99618800Y-99364800D02*
X100253800Y-98856800D01*
D13*
X99913518Y-100685600D02*
G75*
G03X99913518Y-100685600I-370918J0D01*
G01*
D14*
X100253800Y-98856800D02*
X101142800Y-98856800D01*
D13*
X101518729Y-101968300D02*
G75*
G03X101518729Y-101968300I-363229J0D01*
G01*
X107314266Y-102057200D02*
G75*
G03X107314266Y-102057200I-329466J0D01*
G01*
D14*
X106654600Y-101701600D02*
X105816400Y-100888800D01*
D15*
X105308400Y-100787200D02*
X105841800Y-100787200D01*
D14*
X104165400Y-102006400D02*
X105308400Y-100888800D01*
X102844600Y-102006400D02*
X104165400Y-102006400D01*
X102412800Y-101574600D02*
X102844600Y-102006400D01*
X102412800Y-99339400D02*
X102412800Y-101574600D01*
X102412800Y-99314000D02*
X102895400Y-98806000D01*
X102943500Y-98831400D02*
X104165400Y-98831400D01*
X104165400Y-98831400D02*
X105257600Y-99898200D01*
D15*
X105283000Y-100012500D02*
X105841800Y-100012500D01*
D14*
X106705400Y-99021900D02*
X105841800Y-99915600D01*
D13*
X107433135Y-98666300D02*
G75*
G03X107433135Y-98666300I-359435J0D01*
G01*
D14*
X103632000Y-100406200D02*
X102412800Y-100406200D01*
D13*
X104499659Y-100406200D02*
G75*
G03X104499659Y-100406200I-359659J0D01*
G01*
D14*
X92011500Y-102019100D02*
X93052900Y-102019100D01*
X91452700Y-101460300D02*
X91452700Y-100698300D01*
X91440000Y-101447600D02*
X92024200Y-102019100D01*
X91440000Y-99479100D02*
X91440000Y-99720400D01*
X93662500Y-99441000D02*
X93662500Y-101371400D01*
X93040200Y-98831400D02*
X92036900Y-98831400D01*
X101155500Y-98844100D02*
X101155500Y-101447600D01*
X94818200Y-101561900D02*
X94818200Y-98831400D01*
D11*
X94818200Y-98488500D02*
X94538800Y-98488500D01*
X94513400Y-98488500D02*
X94513400Y-101638100D01*
X94526100Y-98488500D02*
X94513400Y-98488500D01*
X94538800Y-98488500D02*
X94526100Y-98488500D01*
X94653100Y-98577400D02*
X94589600Y-98564700D01*
X95135700Y-98488500D02*
X95135700Y-101523800D01*
X94830900Y-98488500D02*
X95135700Y-98488500D01*
X94957900Y-98564700D02*
X95072200Y-98564700D01*
X96456500Y-99174300D02*
X96456500Y-101193600D01*
X97091500Y-101193600D02*
X97091500Y-99174300D01*
X97066100Y-101193600D02*
X97091500Y-101193600D01*
X96456500Y-101193600D02*
X97066100Y-101193600D01*
X96596200Y-101130100D02*
X96532700Y-101130100D01*
X96939100Y-101130100D02*
X97028000Y-101130100D01*
X97675700Y-101536500D02*
X97675700Y-98552000D01*
X98920300Y-98539300D02*
X99504500Y-99021900D01*
X97675700Y-98539300D02*
X98920300Y-98539300D01*
X97828100Y-98602800D02*
X97751900Y-98602800D01*
X101485700Y-101561900D02*
X101485700Y-98552000D01*
X100164900Y-98539300D02*
X99542600Y-99034600D01*
X100190300Y-98539300D02*
X100164900Y-98539300D01*
X101485700Y-98539300D02*
X100190300Y-98539300D01*
X101485700Y-98552000D02*
X101485700Y-98539300D01*
X101333300Y-98615500D02*
X101434900Y-98615500D01*
X104279700Y-98501200D02*
X105537000Y-99745800D01*
X104228900Y-98501200D02*
X104279700Y-98501200D01*
X102857300Y-98501200D02*
X104228900Y-98501200D01*
D10*
X116078000Y-121285000D02*
X116586000Y-121285000D01*
X116205000Y-127889000D02*
X116459000Y-127889000D01*
X98806000Y-127889000D02*
X98425000Y-127889000D01*
X98806000Y-121285000D02*
X98425000Y-121285000D01*
X98552000Y-121412000D02*
X101092000Y-121412000D01*
X113792000Y-121412000D02*
X116332000Y-121412000D01*
X116332000Y-127762000D02*
X116332000Y-121412000D01*
X98552000Y-121412000D02*
X98552000Y-127762000D01*
X97282000Y-120142000D02*
X98552000Y-120142000D01*
X117602000Y-129032000D02*
X113792000Y-129032000D01*
X117602000Y-129032000D02*
X117602000Y-120142000D01*
X97282000Y-120142000D02*
X97282000Y-129032000D01*
X116332000Y-127762000D02*
X113792000Y-127762000D01*
X101092000Y-127762000D02*
X98552000Y-127762000D01*
X116332000Y-120142000D02*
X116332000Y-119888000D01*
X116332000Y-119888000D02*
X115062000Y-119888000D01*
X115062000Y-120142000D02*
X115062000Y-119888000D01*
X116332000Y-120142000D02*
X117602000Y-120142000D01*
X113792000Y-120142000D02*
X115062000Y-120142000D01*
X99822000Y-119888000D02*
X98552000Y-119888000D01*
X98552000Y-119888000D02*
X98552000Y-120142000D01*
X99822000Y-119888000D02*
X99822000Y-120142000D01*
X99822000Y-120142000D02*
X101092000Y-120142000D01*
X113792000Y-128016000D02*
X116586000Y-128016000D01*
X116586000Y-128016000D02*
X116586000Y-121158000D01*
X116586000Y-121158000D02*
X113792000Y-121158000D01*
X101092000Y-121158000D02*
X98298000Y-121158000D01*
X98298000Y-121158000D02*
X98298000Y-128016000D01*
X98298000Y-128016000D02*
X101092000Y-128016000D01*
X101092000Y-129032000D02*
X97282000Y-129032000D01*
X113792000Y-121412000D02*
X113792000Y-121158000D01*
X113792000Y-128016000D02*
X113792000Y-127762000D01*
X101092000Y-128016000D02*
X101092000Y-127762000D01*
X101092000Y-121412000D02*
X101092000Y-121158000D01*
X95250000Y-121285000D02*
X95758000Y-121285000D01*
X95377000Y-127889000D02*
X95631000Y-127889000D01*
X77978000Y-127889000D02*
X77597000Y-127889000D01*
X77978000Y-121285000D02*
X77597000Y-121285000D01*
X77724000Y-121412000D02*
X80264000Y-121412000D01*
X92964000Y-121412000D02*
X95504000Y-121412000D01*
X95504000Y-127762000D02*
X95504000Y-121412000D01*
X77724000Y-121412000D02*
X77724000Y-127762000D01*
X76454000Y-120142000D02*
X77724000Y-120142000D01*
X96774000Y-129032000D02*
X92964000Y-129032000D01*
X96774000Y-129032000D02*
X96774000Y-120142000D01*
X76454000Y-120142000D02*
X76454000Y-129032000D01*
X95504000Y-127762000D02*
X92964000Y-127762000D01*
X80264000Y-127762000D02*
X77724000Y-127762000D01*
X95504000Y-120142000D02*
X95504000Y-119888000D01*
X95504000Y-119888000D02*
X94234000Y-119888000D01*
X94234000Y-120142000D02*
X94234000Y-119888000D01*
X95504000Y-120142000D02*
X96774000Y-120142000D01*
X92964000Y-120142000D02*
X94234000Y-120142000D01*
X78994000Y-119888000D02*
X77724000Y-119888000D01*
X77724000Y-119888000D02*
X77724000Y-120142000D01*
X78994000Y-119888000D02*
X78994000Y-120142000D01*
X78994000Y-120142000D02*
X80264000Y-120142000D01*
X92964000Y-128016000D02*
X95758000Y-128016000D01*
X95758000Y-128016000D02*
X95758000Y-121158000D01*
X95758000Y-121158000D02*
X92964000Y-121158000D01*
X80264000Y-121158000D02*
X77470000Y-121158000D01*
X77470000Y-121158000D02*
X77470000Y-128016000D01*
X77470000Y-128016000D02*
X80264000Y-128016000D01*
X80264000Y-129032000D02*
X76454000Y-129032000D01*
X92964000Y-121412000D02*
X92964000Y-121158000D01*
X92964000Y-128016000D02*
X92964000Y-127762000D01*
X80264000Y-128016000D02*
X80264000Y-127762000D01*
X80264000Y-121412000D02*
X80264000Y-121158000D01*
D16*
X106934000Y-83278000D02*
G75*
G03X108934000Y-81278000I0J2000000D01*
G01*
X108934000Y-80978000D02*
G75*
G03X106934000Y-78978000I-2000000J0D01*
G01*
X106934000Y-72878000D02*
X105534000Y-71478000D01*
X106934000Y-78978000D02*
X106934000Y-73078000D01*
X106934000Y-73078000D02*
X106934000Y-72878000D01*
X103134000Y-72278000D02*
X106234000Y-72278000D01*
X110634000Y-72278000D02*
X107634000Y-72278000D01*
X108934000Y-80878000D02*
X108934000Y-81378000D01*
X106934000Y-84578000D02*
X106934000Y-83278000D01*
X106234000Y-79878000D02*
X107534000Y-82378000D01*
X106234000Y-79878000D02*
X106234000Y-82378000D01*
X106234000Y-82378000D02*
X107534000Y-82378000D01*
X107534000Y-82378000D02*
X107534000Y-79878000D01*
X107534000Y-79878000D02*
X106234000Y-79878000D01*
X100934000Y-81178000D02*
X106234000Y-81178000D01*
X112934000Y-81178000D02*
X107534000Y-81178000D01*
X100934000Y-81878000D02*
X100934000Y-81178000D01*
X112934000Y-81878000D02*
X112934000Y-81178000D01*
X105534000Y-87578000D02*
X99134000Y-87578000D01*
X114734000Y-87578000D02*
X108334000Y-87578000D01*
X99134000Y-68378000D02*
X99134000Y-87578000D01*
X114734000Y-87578000D02*
X114734000Y-68378000D01*
X114734000Y-68378000D02*
X99134000Y-68378000D01*
X87122000Y-83278000D02*
G75*
G03X89122000Y-81278000I0J2000000D01*
G01*
X89122000Y-80978000D02*
G75*
G03X87122000Y-78978000I-2000000J0D01*
G01*
X87122000Y-72878000D02*
X85722000Y-71478000D01*
X87122000Y-78978000D02*
X87122000Y-73078000D01*
X87122000Y-73078000D02*
X87122000Y-72878000D01*
X83322000Y-72278000D02*
X86422000Y-72278000D01*
X90822000Y-72278000D02*
X87822000Y-72278000D01*
X89122000Y-80878000D02*
X89122000Y-81378000D01*
X87122000Y-84578000D02*
X87122000Y-83278000D01*
X86422000Y-79878000D02*
X87722000Y-82378000D01*
X86422000Y-79878000D02*
X86422000Y-82378000D01*
X86422000Y-82378000D02*
X87722000Y-82378000D01*
X87722000Y-82378000D02*
X87722000Y-79878000D01*
X87722000Y-79878000D02*
X86422000Y-79878000D01*
X81122000Y-81178000D02*
X86422000Y-81178000D01*
X93122000Y-81178000D02*
X87722000Y-81178000D01*
X81122000Y-81878000D02*
X81122000Y-81178000D01*
X93122000Y-81878000D02*
X93122000Y-81178000D01*
X85722000Y-87578000D02*
X79322000Y-87578000D01*
X94922000Y-87578000D02*
X88522000Y-87578000D01*
X79322000Y-68378000D02*
X79322000Y-87578000D01*
X94922000Y-87578000D02*
X94922000Y-68378000D01*
X94922000Y-68378000D02*
X79322000Y-68378000D01*
D10*
X122872500Y-121666000D02*
X122872500Y-121412000D01*
X122872500Y-121666000D02*
X122872500Y-121920000D01*
X123761500Y-121666000D02*
X123761500Y-121920000D01*
X123761500Y-121666000D02*
X123761500Y-121412000D01*
X123761500Y-119380000D02*
X123761500Y-119634000D01*
X123761500Y-119380000D02*
X123761500Y-119126000D01*
X122872500Y-119380000D02*
X122872500Y-119126000D01*
X122872500Y-119380000D02*
X122872500Y-119634000D01*
X120586500Y-71882000D02*
X120586500Y-72136000D01*
X120586500Y-71882000D02*
X120586500Y-71628000D01*
X119697500Y-71882000D02*
X119697500Y-71628000D01*
X119697500Y-71882000D02*
X119697500Y-72136000D01*
X74358500Y-71882000D02*
X74358500Y-72136000D01*
X74358500Y-71882000D02*
X74358500Y-71628000D01*
X73469500Y-71882000D02*
X73469500Y-71628000D01*
X73469500Y-71882000D02*
X73469500Y-72136000D01*
D17*
X119557800Y-70485000D02*
X119557800Y-69469000D01*
X120777000Y-69469000D02*
X120777000Y-70485000D01*
D11*
X120142000Y-68828000D02*
X120142000Y-69348000D01*
X120252000Y-68998000D02*
X120032000Y-68998000D01*
X120252000Y-68998000D02*
X120152000Y-69108000D01*
X120032000Y-68998000D02*
X120132000Y-69098000D01*
X120252000Y-69188000D02*
X120032000Y-69188000D01*
D18*
X119896400Y-69265800D02*
X119786400Y-69135800D01*
X119787400Y-69134200D02*
X119797400Y-69214200D01*
X119787400Y-69134200D02*
X119867400Y-69134200D01*
X119787400Y-68918800D02*
X119867400Y-68918800D01*
X119787400Y-68918800D02*
X119797400Y-68998800D01*
X119917400Y-69058800D02*
X119807400Y-68928800D01*
D10*
X120713500Y-70497700D02*
X120586500Y-70650100D01*
X119621300Y-70497700D02*
X119748300Y-70637400D01*
X120586500Y-70650100D02*
X119761000Y-70650100D01*
X119659400Y-70485000D02*
X120700800Y-70485000D01*
D17*
X73329800Y-70485000D02*
X73329800Y-69469000D01*
X74549000Y-69469000D02*
X74549000Y-70485000D01*
D11*
X73914000Y-68828000D02*
X73914000Y-69348000D01*
X74024000Y-68998000D02*
X73804000Y-68998000D01*
X74024000Y-68998000D02*
X73924000Y-69108000D01*
X73804000Y-68998000D02*
X73904000Y-69098000D01*
X74024000Y-69188000D02*
X73804000Y-69188000D01*
D18*
X73668400Y-69265800D02*
X73558400Y-69135800D01*
X73559400Y-69134200D02*
X73569400Y-69214200D01*
X73559400Y-69134200D02*
X73639400Y-69134200D01*
X73559400Y-68918800D02*
X73639400Y-68918800D01*
X73559400Y-68918800D02*
X73569400Y-68998800D01*
X73689400Y-69058800D02*
X73579400Y-68928800D01*
D10*
X74485500Y-70497700D02*
X74358500Y-70650100D01*
X73393300Y-70497700D02*
X73520300Y-70637400D01*
X74358500Y-70650100D02*
X73533000Y-70650100D01*
X73431400Y-70485000D02*
X74472800Y-70485000D01*
D19*
X106908600Y-97155000D02*
X106908600Y-95173800D01*
X107162600Y-97155000D02*
X107162600Y-95123000D01*
X105103000Y-95089000D02*
X108003000Y-95089000D01*
X108003000Y-97189000D02*
X105103000Y-97189000D01*
X81051400Y-95123000D02*
X81051400Y-97104200D01*
X80797400Y-95123000D02*
X80797400Y-97155000D01*
X82857000Y-97189000D02*
X79957000Y-97189000D01*
X79957000Y-95089000D02*
X82857000Y-95089000D01*
D20*
G36*
X98934000Y-60643000D02*
G01*
X99434000Y-60643000D01*
X99434000Y-61743000D01*
X98934000Y-61743000D01*
X98934000Y-60643000D01*
G37*
X98934000Y-60643000D02*
X99434000Y-60643000D01*
X99434000Y-61743000D01*
X98934000Y-61743000D01*
X98934000Y-60643000D01*
D10*
X101434000Y-67043000D02*
X101434000Y-67743000D01*
X102434000Y-67743000D02*
X102434000Y-67043000D01*
X106434000Y-67743000D02*
X106434000Y-67043000D01*
X107434000Y-67743000D02*
X107434000Y-67043000D01*
X111434000Y-67743000D02*
X111434000Y-67043000D01*
X112434000Y-67743000D02*
X112434000Y-67043000D01*
X102293210Y-62393000D02*
G75*
G03X102293210Y-62393000I-359210J0D01*
G01*
X107293210Y-62393000D02*
G75*
G03X107293210Y-62393000I-359210J0D01*
G01*
X112293210Y-62393000D02*
G75*
G03X112293210Y-62393000I-359210J0D01*
G01*
X99434000Y-60143000D02*
X114434000Y-60143000D01*
X114434000Y-67743000D02*
X99434000Y-67743000D01*
X99434000Y-60143000D02*
X99434000Y-67743000D01*
X114434000Y-60143000D02*
X114434000Y-67743000D01*
X114434000Y-67043000D02*
X99434000Y-67043000D01*
X109684000Y-66393000D02*
X109684000Y-62893000D01*
X109684000Y-62893000D02*
X109184000Y-62893000D01*
X109184000Y-62893000D02*
X109184000Y-66393000D01*
X109184000Y-66393000D02*
X109684000Y-66393000D01*
X104184000Y-66393000D02*
X104684000Y-66393000D01*
X104184000Y-62893000D02*
X104184000Y-66393000D01*
X104684000Y-66393000D02*
X104684000Y-62893000D01*
X104684000Y-62893000D02*
X104184000Y-62893000D01*
X99434000Y-61743000D02*
X98934000Y-61743000D01*
X98934000Y-61743000D02*
X98934000Y-60643000D01*
X98934000Y-60643000D02*
X99434000Y-60643000D01*
D20*
G36*
X79122000Y-60643000D02*
G01*
X79622000Y-60643000D01*
X79622000Y-61743000D01*
X79122000Y-61743000D01*
X79122000Y-60643000D01*
G37*
X79122000Y-60643000D02*
X79622000Y-60643000D01*
X79622000Y-61743000D01*
X79122000Y-61743000D01*
X79122000Y-60643000D01*
D10*
X81622000Y-67043000D02*
X81622000Y-67743000D01*
X82622000Y-67743000D02*
X82622000Y-67043000D01*
X86622000Y-67743000D02*
X86622000Y-67043000D01*
X87622000Y-67743000D02*
X87622000Y-67043000D01*
X91622000Y-67743000D02*
X91622000Y-67043000D01*
X92622000Y-67743000D02*
X92622000Y-67043000D01*
X82481210Y-62393000D02*
G75*
G03X82481210Y-62393000I-359210J0D01*
G01*
X87481210Y-62393000D02*
G75*
G03X87481210Y-62393000I-359210J0D01*
G01*
X92481210Y-62393000D02*
G75*
G03X92481210Y-62393000I-359210J0D01*
G01*
X79622000Y-60143000D02*
X94622000Y-60143000D01*
X94622000Y-67743000D02*
X79622000Y-67743000D01*
X79622000Y-60143000D02*
X79622000Y-67743000D01*
X94622000Y-60143000D02*
X94622000Y-67743000D01*
X94622000Y-67043000D02*
X79622000Y-67043000D01*
X89872000Y-66393000D02*
X89872000Y-62893000D01*
X89872000Y-62893000D02*
X89372000Y-62893000D01*
X89372000Y-62893000D02*
X89372000Y-66393000D01*
X89372000Y-66393000D02*
X89872000Y-66393000D01*
X84372000Y-66393000D02*
X84872000Y-66393000D01*
X84372000Y-62893000D02*
X84372000Y-66393000D01*
X84872000Y-66393000D02*
X84872000Y-62893000D01*
X84872000Y-62893000D02*
X84372000Y-62893000D01*
X79622000Y-61743000D02*
X79122000Y-61743000D01*
X79122000Y-61743000D02*
X79122000Y-60643000D01*
X79122000Y-60643000D02*
X79622000Y-60643000D01*
X124968000Y-133223000D02*
X124968000Y-135763000D01*
X94488000Y-133223000D02*
X124968000Y-133223000D01*
X94996000Y-135763000D02*
X94488000Y-135763000D01*
X124968000Y-135763000D02*
X94996000Y-135763000D01*
X94488000Y-133223000D02*
X94488000Y-135763000D01*
X71628000Y-124841000D02*
X71628000Y-124587000D01*
X71628000Y-124587000D02*
X71628000Y-122555000D01*
X71628000Y-122555000D02*
X71882000Y-122301000D01*
X71882000Y-122301000D02*
X71628000Y-122047000D01*
X71628000Y-122047000D02*
X71628000Y-120015000D01*
X71628000Y-120015000D02*
X71882000Y-119761000D01*
X71882000Y-119761000D02*
X71628000Y-119507000D01*
X71628000Y-119507000D02*
X71628000Y-117475000D01*
X71628000Y-117475000D02*
X71882000Y-117221000D01*
X71882000Y-117221000D02*
X73914000Y-117221000D01*
X73914000Y-117221000D02*
X74168000Y-117475000D01*
X74168000Y-117475000D02*
X74168000Y-119507000D01*
X71882000Y-124841000D02*
X71628000Y-124587000D01*
X74168000Y-124587000D02*
X73914000Y-124841000D01*
X74168000Y-124333000D02*
X74168000Y-124841000D01*
X74168000Y-120015000D02*
X74168000Y-122047000D01*
X74168000Y-122047000D02*
X73914000Y-122301000D01*
X73914000Y-122301000D02*
X74168000Y-122555000D01*
X74168000Y-122555000D02*
X74168000Y-124333000D01*
X74168000Y-120015000D02*
X73914000Y-119761000D01*
X73914000Y-119761000D02*
X74168000Y-119507000D01*
X71628000Y-124841000D02*
X74168000Y-124841000D01*
X119888000Y-124841000D02*
X119888000Y-124587000D01*
X119888000Y-124587000D02*
X119888000Y-122555000D01*
X119888000Y-122555000D02*
X120142000Y-122301000D01*
X120142000Y-122301000D02*
X119888000Y-122047000D01*
X119888000Y-122047000D02*
X119888000Y-120015000D01*
X119888000Y-120015000D02*
X120142000Y-119761000D01*
X120142000Y-119761000D02*
X119888000Y-119507000D01*
X119888000Y-119507000D02*
X119888000Y-117475000D01*
X119888000Y-117475000D02*
X120142000Y-117221000D01*
X120142000Y-117221000D02*
X122174000Y-117221000D01*
X122174000Y-117221000D02*
X122428000Y-117475000D01*
X122428000Y-117475000D02*
X122428000Y-119507000D01*
X120142000Y-124841000D02*
X119888000Y-124587000D01*
X122428000Y-124587000D02*
X122174000Y-124841000D01*
X122428000Y-124333000D02*
X122428000Y-124841000D01*
X122428000Y-120015000D02*
X122428000Y-122047000D01*
X122428000Y-122047000D02*
X122174000Y-122301000D01*
X122174000Y-122301000D02*
X122428000Y-122555000D01*
X122428000Y-122555000D02*
X122428000Y-124333000D01*
X122428000Y-120015000D02*
X122174000Y-119761000D01*
X122174000Y-119761000D02*
X122428000Y-119507000D01*
X119888000Y-124841000D02*
X122428000Y-124841000D01*
X71628000Y-90551000D02*
X71628000Y-93091000D01*
X76708000Y-92837000D02*
X76962000Y-93091000D01*
X76454000Y-93091000D02*
X76708000Y-92837000D01*
X73914000Y-93091000D02*
X72136000Y-93091000D01*
X74168000Y-92837000D02*
X73914000Y-93091000D01*
X74422000Y-93091000D02*
X74168000Y-92837000D01*
X76454000Y-93091000D02*
X74422000Y-93091000D01*
X72136000Y-93091000D02*
X71628000Y-93091000D01*
X71882000Y-93091000D02*
X71628000Y-92837000D01*
X71628000Y-90805000D02*
X71882000Y-90551000D01*
X78994000Y-93091000D02*
X76962000Y-93091000D01*
X79248000Y-92837000D02*
X78994000Y-93091000D01*
X82042000Y-93091000D02*
X81788000Y-92837000D01*
X81534000Y-93091000D02*
X79502000Y-93091000D01*
X81788000Y-92837000D02*
X81534000Y-93091000D01*
X81534000Y-90551000D02*
X81788000Y-90805000D01*
X79502000Y-90551000D02*
X81534000Y-90551000D01*
X79248000Y-90805000D02*
X79502000Y-90551000D01*
X78994000Y-90551000D02*
X79248000Y-90805000D01*
X76962000Y-90551000D02*
X78994000Y-90551000D01*
X76708000Y-90805000D02*
X76962000Y-90551000D01*
X76454000Y-90551000D02*
X76708000Y-90805000D01*
X74422000Y-90551000D02*
X76454000Y-90551000D01*
X74168000Y-90805000D02*
X74422000Y-90551000D01*
X73914000Y-90551000D02*
X74168000Y-90805000D01*
X71882000Y-90551000D02*
X73914000Y-90551000D01*
X71628000Y-90551000D02*
X71882000Y-90551000D01*
X81788000Y-90805000D02*
X82042000Y-90551000D01*
X82042000Y-90551000D02*
X84074000Y-90551000D01*
X86614000Y-90551000D02*
X86868000Y-90805000D01*
X84074000Y-93091000D02*
X82042000Y-93091000D01*
X79502000Y-93091000D02*
X79248000Y-92837000D01*
X86868000Y-92837000D02*
X86614000Y-93091000D01*
X84582000Y-90551000D02*
X86614000Y-90551000D01*
X84328000Y-90805000D02*
X84582000Y-90551000D01*
X86614000Y-93091000D02*
X84582000Y-93091000D01*
X84328000Y-92837000D02*
X84074000Y-93091000D01*
X84582000Y-93091000D02*
X84328000Y-92837000D01*
X84074000Y-90551000D02*
X84328000Y-90805000D01*
X86614000Y-90551000D02*
X86868000Y-90805000D01*
X86868000Y-92837000D02*
X86614000Y-93091000D01*
X86614000Y-93091000D02*
X84582000Y-93091000D01*
X84582000Y-90551000D02*
X86614000Y-90551000D01*
X84328000Y-90805000D02*
X84582000Y-90551000D01*
X84582000Y-93091000D02*
X84328000Y-92837000D01*
X89662000Y-93091000D02*
X89408000Y-92837000D01*
X89408000Y-90805000D02*
X89662000Y-90551000D01*
X89662000Y-90551000D02*
X91694000Y-90551000D01*
X91694000Y-93091000D02*
X89662000Y-93091000D01*
X91948000Y-92837000D02*
X91694000Y-93091000D01*
X91694000Y-90551000D02*
X91948000Y-90805000D01*
X89154000Y-90551000D02*
X89408000Y-90805000D01*
X89662000Y-93091000D02*
X89408000Y-92837000D01*
X89408000Y-92837000D02*
X89154000Y-93091000D01*
X91694000Y-93091000D02*
X89662000Y-93091000D01*
X89408000Y-90805000D02*
X89662000Y-90551000D01*
X89662000Y-90551000D02*
X91694000Y-90551000D01*
X91948000Y-92837000D02*
X91694000Y-93091000D01*
X89154000Y-93091000D02*
X87122000Y-93091000D01*
X91694000Y-90551000D02*
X91948000Y-90805000D01*
X87122000Y-90551000D02*
X89154000Y-90551000D01*
X86868000Y-90805000D02*
X87122000Y-90551000D01*
X87122000Y-93091000D02*
X86868000Y-92837000D01*
X92202000Y-93091000D02*
X91948000Y-92837000D01*
X91948000Y-90805000D02*
X92202000Y-90551000D01*
X92202000Y-90551000D02*
X94234000Y-90551000D01*
X96774000Y-90551000D02*
X97028000Y-90805000D01*
X94234000Y-93091000D02*
X92202000Y-93091000D01*
X97028000Y-92837000D02*
X96774000Y-93091000D01*
X94742000Y-90551000D02*
X96774000Y-90551000D01*
X94488000Y-90805000D02*
X94742000Y-90551000D01*
X96774000Y-93091000D02*
X94742000Y-93091000D01*
X94488000Y-92837000D02*
X94234000Y-93091000D01*
X94742000Y-93091000D02*
X94488000Y-92837000D01*
X94234000Y-90551000D02*
X94488000Y-90805000D01*
X96774000Y-90551000D02*
X97028000Y-90805000D01*
X97028000Y-92837000D02*
X96774000Y-93091000D01*
X96774000Y-93091000D02*
X94742000Y-93091000D01*
X94742000Y-90551000D02*
X96774000Y-90551000D01*
X94488000Y-90805000D02*
X94742000Y-90551000D01*
X94742000Y-93091000D02*
X94488000Y-92837000D01*
X99822000Y-93091000D02*
X99568000Y-92837000D01*
X99568000Y-90805000D02*
X99822000Y-90551000D01*
X99822000Y-90551000D02*
X101854000Y-90551000D01*
X101854000Y-93091000D02*
X99822000Y-93091000D01*
X102108000Y-92837000D02*
X101854000Y-93091000D01*
X101854000Y-90551000D02*
X102108000Y-90805000D01*
X99314000Y-90551000D02*
X99568000Y-90805000D01*
X99822000Y-93091000D02*
X99568000Y-92837000D01*
X99568000Y-92837000D02*
X99314000Y-93091000D01*
X101854000Y-93091000D02*
X99822000Y-93091000D01*
X99568000Y-90805000D02*
X99822000Y-90551000D01*
X99822000Y-90551000D02*
X101854000Y-90551000D01*
X102108000Y-92837000D02*
X101854000Y-93091000D01*
X99314000Y-93091000D02*
X97282000Y-93091000D01*
X101854000Y-90551000D02*
X102108000Y-90805000D01*
X97282000Y-90551000D02*
X99314000Y-90551000D01*
X97028000Y-90805000D02*
X97282000Y-90551000D01*
X97282000Y-93091000D02*
X97028000Y-92837000D01*
X102362000Y-93091000D02*
X102108000Y-92837000D01*
X102108000Y-90805000D02*
X102362000Y-90551000D01*
X102362000Y-90551000D02*
X104394000Y-90551000D01*
X106934000Y-90551000D02*
X107188000Y-90805000D01*
X104394000Y-93091000D02*
X102362000Y-93091000D01*
X107188000Y-92837000D02*
X106934000Y-93091000D01*
X104902000Y-90551000D02*
X106934000Y-90551000D01*
X104648000Y-90805000D02*
X104902000Y-90551000D01*
X106934000Y-93091000D02*
X104902000Y-93091000D01*
X104648000Y-92837000D02*
X104394000Y-93091000D01*
X104902000Y-93091000D02*
X104648000Y-92837000D01*
X104394000Y-90551000D02*
X104648000Y-90805000D01*
X106934000Y-90551000D02*
X107188000Y-90805000D01*
X107188000Y-92837000D02*
X106934000Y-93091000D01*
X106934000Y-93091000D02*
X104902000Y-93091000D01*
X104902000Y-90551000D02*
X106934000Y-90551000D01*
X104648000Y-90805000D02*
X104902000Y-90551000D01*
X104902000Y-93091000D02*
X104648000Y-92837000D01*
X109982000Y-93091000D02*
X109728000Y-92837000D01*
X109728000Y-90805000D02*
X109982000Y-90551000D01*
X109982000Y-90551000D02*
X112014000Y-90551000D01*
X112014000Y-93091000D02*
X109982000Y-93091000D01*
X112268000Y-92837000D02*
X112014000Y-93091000D01*
X112014000Y-90551000D02*
X112268000Y-90805000D01*
X109474000Y-90551000D02*
X109728000Y-90805000D01*
X109982000Y-93091000D02*
X109728000Y-92837000D01*
X109728000Y-92837000D02*
X109474000Y-93091000D01*
X112014000Y-93091000D02*
X109982000Y-93091000D01*
X109728000Y-90805000D02*
X109982000Y-90551000D01*
X109982000Y-90551000D02*
X112014000Y-90551000D01*
X112268000Y-92837000D02*
X112014000Y-93091000D01*
X109474000Y-93091000D02*
X107442000Y-93091000D01*
X112014000Y-90551000D02*
X112268000Y-90805000D01*
X107442000Y-90551000D02*
X109474000Y-90551000D01*
X107188000Y-90805000D02*
X107442000Y-90551000D01*
X107442000Y-93091000D02*
X107188000Y-92837000D01*
X117602000Y-93091000D02*
X117348000Y-92837000D01*
X117348000Y-90805000D02*
X117602000Y-90551000D01*
X117602000Y-90551000D02*
X119634000Y-90551000D01*
X122174000Y-90551000D02*
X122428000Y-90805000D01*
X119634000Y-93091000D02*
X117602000Y-93091000D01*
X122428000Y-92837000D02*
X122174000Y-93091000D01*
X122428000Y-90805000D02*
X122428000Y-92837000D01*
X120142000Y-90551000D02*
X122174000Y-90551000D01*
X119888000Y-90805000D02*
X120142000Y-90551000D01*
X122174000Y-93091000D02*
X120142000Y-93091000D01*
X119888000Y-92837000D02*
X119634000Y-93091000D01*
X120142000Y-93091000D02*
X119888000Y-92837000D01*
X119634000Y-90551000D02*
X119888000Y-90805000D01*
X122174000Y-90551000D02*
X122428000Y-90805000D01*
X122428000Y-92837000D02*
X122174000Y-93091000D01*
X122174000Y-93091000D02*
X120142000Y-93091000D01*
X120142000Y-90551000D02*
X122174000Y-90551000D01*
X119888000Y-90805000D02*
X120142000Y-90551000D01*
X120142000Y-93091000D02*
X119888000Y-92837000D01*
X115062000Y-93091000D02*
X114808000Y-92837000D01*
X114808000Y-90805000D02*
X115062000Y-90551000D01*
X115062000Y-90551000D02*
X117094000Y-90551000D01*
X117094000Y-93091000D02*
X115062000Y-93091000D01*
X117348000Y-92837000D02*
X117094000Y-93091000D01*
X117094000Y-90551000D02*
X117348000Y-90805000D01*
X114554000Y-90551000D02*
X114808000Y-90805000D01*
X115062000Y-93091000D02*
X114808000Y-92837000D01*
X114808000Y-92837000D02*
X114554000Y-93091000D01*
X117094000Y-93091000D02*
X115062000Y-93091000D01*
X114808000Y-90805000D02*
X115062000Y-90551000D01*
X115062000Y-90551000D02*
X117094000Y-90551000D01*
X117348000Y-92837000D02*
X117094000Y-93091000D01*
X114554000Y-93091000D02*
X112522000Y-93091000D01*
X117094000Y-90551000D02*
X117348000Y-90805000D01*
X112522000Y-90551000D02*
X114554000Y-90551000D01*
X112268000Y-90805000D02*
X112522000Y-90551000D01*
X112522000Y-93091000D02*
X112268000Y-92837000D01*
X71628000Y-113411000D02*
X71628000Y-115951000D01*
X76708000Y-115697000D02*
X76962000Y-115951000D01*
X76454000Y-115951000D02*
X76708000Y-115697000D01*
X73914000Y-115951000D02*
X72136000Y-115951000D01*
X74168000Y-115697000D02*
X73914000Y-115951000D01*
X74422000Y-115951000D02*
X74168000Y-115697000D01*
X76454000Y-115951000D02*
X74422000Y-115951000D01*
X72136000Y-115951000D02*
X71628000Y-115951000D01*
X71882000Y-115951000D02*
X71628000Y-115697000D01*
X71628000Y-113665000D02*
X71882000Y-113411000D01*
X78994000Y-115951000D02*
X76962000Y-115951000D01*
X79248000Y-115697000D02*
X78994000Y-115951000D01*
X82042000Y-115951000D02*
X81788000Y-115697000D01*
X81534000Y-115951000D02*
X79502000Y-115951000D01*
X81788000Y-115697000D02*
X81534000Y-115951000D01*
X81534000Y-113411000D02*
X81788000Y-113665000D01*
X79502000Y-113411000D02*
X81534000Y-113411000D01*
X79248000Y-113665000D02*
X79502000Y-113411000D01*
X78994000Y-113411000D02*
X79248000Y-113665000D01*
X76962000Y-113411000D02*
X78994000Y-113411000D01*
X76708000Y-113665000D02*
X76962000Y-113411000D01*
X76454000Y-113411000D02*
X76708000Y-113665000D01*
X74422000Y-113411000D02*
X76454000Y-113411000D01*
X74168000Y-113665000D02*
X74422000Y-113411000D01*
X73914000Y-113411000D02*
X74168000Y-113665000D01*
X71882000Y-113411000D02*
X73914000Y-113411000D01*
X71628000Y-113411000D02*
X71882000Y-113411000D01*
X81788000Y-113665000D02*
X82042000Y-113411000D01*
X82042000Y-113411000D02*
X84074000Y-113411000D01*
X86614000Y-113411000D02*
X86868000Y-113665000D01*
X84074000Y-115951000D02*
X82042000Y-115951000D01*
X79502000Y-115951000D02*
X79248000Y-115697000D01*
X86868000Y-115697000D02*
X86614000Y-115951000D01*
X84582000Y-113411000D02*
X86614000Y-113411000D01*
X84328000Y-113665000D02*
X84582000Y-113411000D01*
X86614000Y-115951000D02*
X84582000Y-115951000D01*
X84328000Y-115697000D02*
X84074000Y-115951000D01*
X84582000Y-115951000D02*
X84328000Y-115697000D01*
X84074000Y-113411000D02*
X84328000Y-113665000D01*
X86614000Y-113411000D02*
X86868000Y-113665000D01*
X86868000Y-115697000D02*
X86614000Y-115951000D01*
X86614000Y-115951000D02*
X84582000Y-115951000D01*
X84582000Y-113411000D02*
X86614000Y-113411000D01*
X84328000Y-113665000D02*
X84582000Y-113411000D01*
X84582000Y-115951000D02*
X84328000Y-115697000D01*
X89662000Y-115951000D02*
X89408000Y-115697000D01*
X89408000Y-113665000D02*
X89662000Y-113411000D01*
X89662000Y-113411000D02*
X91694000Y-113411000D01*
X91694000Y-115951000D02*
X89662000Y-115951000D01*
X91948000Y-115697000D02*
X91694000Y-115951000D01*
X91694000Y-113411000D02*
X91948000Y-113665000D01*
X89154000Y-113411000D02*
X89408000Y-113665000D01*
X89662000Y-115951000D02*
X89408000Y-115697000D01*
X89408000Y-115697000D02*
X89154000Y-115951000D01*
X91694000Y-115951000D02*
X89662000Y-115951000D01*
X89408000Y-113665000D02*
X89662000Y-113411000D01*
X89662000Y-113411000D02*
X91694000Y-113411000D01*
X91948000Y-115697000D02*
X91694000Y-115951000D01*
X89154000Y-115951000D02*
X87122000Y-115951000D01*
X91694000Y-113411000D02*
X91948000Y-113665000D01*
X87122000Y-113411000D02*
X89154000Y-113411000D01*
X86868000Y-113665000D02*
X87122000Y-113411000D01*
X87122000Y-115951000D02*
X86868000Y-115697000D01*
X92202000Y-115951000D02*
X91948000Y-115697000D01*
X91948000Y-113665000D02*
X92202000Y-113411000D01*
X92202000Y-113411000D02*
X94234000Y-113411000D01*
X96774000Y-113411000D02*
X97028000Y-113665000D01*
X94234000Y-115951000D02*
X92202000Y-115951000D01*
X97028000Y-115697000D02*
X96774000Y-115951000D01*
X94742000Y-113411000D02*
X96774000Y-113411000D01*
X94488000Y-113665000D02*
X94742000Y-113411000D01*
X96774000Y-115951000D02*
X94742000Y-115951000D01*
X94488000Y-115697000D02*
X94234000Y-115951000D01*
X94742000Y-115951000D02*
X94488000Y-115697000D01*
X94234000Y-113411000D02*
X94488000Y-113665000D01*
X96774000Y-113411000D02*
X97028000Y-113665000D01*
X97028000Y-115697000D02*
X96774000Y-115951000D01*
X96774000Y-115951000D02*
X94742000Y-115951000D01*
X94742000Y-113411000D02*
X96774000Y-113411000D01*
X94488000Y-113665000D02*
X94742000Y-113411000D01*
X94742000Y-115951000D02*
X94488000Y-115697000D01*
X99822000Y-115951000D02*
X99568000Y-115697000D01*
X99568000Y-113665000D02*
X99822000Y-113411000D01*
X99822000Y-113411000D02*
X101854000Y-113411000D01*
X101854000Y-115951000D02*
X99822000Y-115951000D01*
X102108000Y-115697000D02*
X101854000Y-115951000D01*
X101854000Y-113411000D02*
X102108000Y-113665000D01*
X99314000Y-113411000D02*
X99568000Y-113665000D01*
X99822000Y-115951000D02*
X99568000Y-115697000D01*
X99568000Y-115697000D02*
X99314000Y-115951000D01*
X101854000Y-115951000D02*
X99822000Y-115951000D01*
X99568000Y-113665000D02*
X99822000Y-113411000D01*
X99822000Y-113411000D02*
X101854000Y-113411000D01*
X102108000Y-115697000D02*
X101854000Y-115951000D01*
X99314000Y-115951000D02*
X97282000Y-115951000D01*
X101854000Y-113411000D02*
X102108000Y-113665000D01*
X97282000Y-113411000D02*
X99314000Y-113411000D01*
X97028000Y-113665000D02*
X97282000Y-113411000D01*
X97282000Y-115951000D02*
X97028000Y-115697000D01*
X102362000Y-115951000D02*
X102108000Y-115697000D01*
X102108000Y-113665000D02*
X102362000Y-113411000D01*
X102362000Y-113411000D02*
X104394000Y-113411000D01*
X106934000Y-113411000D02*
X107188000Y-113665000D01*
X104394000Y-115951000D02*
X102362000Y-115951000D01*
X107188000Y-115697000D02*
X106934000Y-115951000D01*
X104902000Y-113411000D02*
X106934000Y-113411000D01*
X104648000Y-113665000D02*
X104902000Y-113411000D01*
X106934000Y-115951000D02*
X104902000Y-115951000D01*
X104648000Y-115697000D02*
X104394000Y-115951000D01*
X104902000Y-115951000D02*
X104648000Y-115697000D01*
X104394000Y-113411000D02*
X104648000Y-113665000D01*
X106934000Y-113411000D02*
X107188000Y-113665000D01*
X107188000Y-115697000D02*
X106934000Y-115951000D01*
X106934000Y-115951000D02*
X104902000Y-115951000D01*
X104902000Y-113411000D02*
X106934000Y-113411000D01*
X104648000Y-113665000D02*
X104902000Y-113411000D01*
X104902000Y-115951000D02*
X104648000Y-115697000D01*
X109982000Y-115951000D02*
X109728000Y-115697000D01*
X109728000Y-113665000D02*
X109982000Y-113411000D01*
X109982000Y-113411000D02*
X112014000Y-113411000D01*
X112014000Y-115951000D02*
X109982000Y-115951000D01*
X112268000Y-115697000D02*
X112014000Y-115951000D01*
X112014000Y-113411000D02*
X112268000Y-113665000D01*
X109474000Y-113411000D02*
X109728000Y-113665000D01*
X109982000Y-115951000D02*
X109728000Y-115697000D01*
X109728000Y-115697000D02*
X109474000Y-115951000D01*
X112014000Y-115951000D02*
X109982000Y-115951000D01*
X109728000Y-113665000D02*
X109982000Y-113411000D01*
X109982000Y-113411000D02*
X112014000Y-113411000D01*
X112268000Y-115697000D02*
X112014000Y-115951000D01*
X109474000Y-115951000D02*
X107442000Y-115951000D01*
X112014000Y-113411000D02*
X112268000Y-113665000D01*
X107442000Y-113411000D02*
X109474000Y-113411000D01*
X107188000Y-113665000D02*
X107442000Y-113411000D01*
X107442000Y-115951000D02*
X107188000Y-115697000D01*
X117602000Y-115951000D02*
X117348000Y-115697000D01*
X117348000Y-113665000D02*
X117602000Y-113411000D01*
X117602000Y-113411000D02*
X119634000Y-113411000D01*
X122174000Y-113411000D02*
X122428000Y-113665000D01*
X119634000Y-115951000D02*
X117602000Y-115951000D01*
X122428000Y-115697000D02*
X122174000Y-115951000D01*
X122428000Y-113665000D02*
X122428000Y-115697000D01*
X120142000Y-113411000D02*
X122174000Y-113411000D01*
X119888000Y-113665000D02*
X120142000Y-113411000D01*
X122174000Y-115951000D02*
X120142000Y-115951000D01*
X119888000Y-115697000D02*
X119634000Y-115951000D01*
X120142000Y-115951000D02*
X119888000Y-115697000D01*
X119634000Y-113411000D02*
X119888000Y-113665000D01*
X122174000Y-113411000D02*
X122428000Y-113665000D01*
X122428000Y-115697000D02*
X122174000Y-115951000D01*
X122174000Y-115951000D02*
X120142000Y-115951000D01*
X120142000Y-113411000D02*
X122174000Y-113411000D01*
X119888000Y-113665000D02*
X120142000Y-113411000D01*
X120142000Y-115951000D02*
X119888000Y-115697000D01*
X115062000Y-115951000D02*
X114808000Y-115697000D01*
X114808000Y-113665000D02*
X115062000Y-113411000D01*
X115062000Y-113411000D02*
X117094000Y-113411000D01*
X117094000Y-115951000D02*
X115062000Y-115951000D01*
X117348000Y-115697000D02*
X117094000Y-115951000D01*
X117094000Y-113411000D02*
X117348000Y-113665000D01*
X114554000Y-113411000D02*
X114808000Y-113665000D01*
X115062000Y-115951000D02*
X114808000Y-115697000D01*
X114808000Y-115697000D02*
X114554000Y-115951000D01*
X117094000Y-115951000D02*
X115062000Y-115951000D01*
X114808000Y-113665000D02*
X115062000Y-113411000D01*
X115062000Y-113411000D02*
X117094000Y-113411000D01*
X117348000Y-115697000D02*
X117094000Y-115951000D01*
X114554000Y-115951000D02*
X112522000Y-115951000D01*
X117094000Y-113411000D02*
X117348000Y-113665000D01*
X112522000Y-113411000D02*
X114554000Y-113411000D01*
X112268000Y-113665000D02*
X112522000Y-113411000D01*
X112522000Y-115951000D02*
X112268000Y-115697000D01*
X71247000Y-117094000D02*
X71247000Y-118110000D01*
X69723000Y-117094000D02*
X69723000Y-118110000D01*
X81661000Y-132461000D02*
X80645000Y-132461000D01*
X81661000Y-130937000D02*
X80645000Y-130937000D01*
X100965000Y-130937000D02*
X101981000Y-130937000D01*
X100965000Y-132461000D02*
X101981000Y-132461000D01*
X124909000Y-77250000D02*
X121709000Y-77250000D01*
X124909000Y-67550000D02*
X124909000Y-77250000D01*
X121709000Y-67550000D02*
X124909000Y-67550000D01*
X121709000Y-77250000D02*
X121709000Y-67550000D01*
X120586500Y-76200000D02*
X120586500Y-76454000D01*
X120586500Y-76200000D02*
X120586500Y-75946000D01*
X119697500Y-76200000D02*
X119697500Y-75946000D01*
X119697500Y-76200000D02*
X119697500Y-76454000D01*
X120586500Y-74041000D02*
X120586500Y-74295000D01*
X120586500Y-74041000D02*
X120586500Y-73787000D01*
X119697500Y-74041000D02*
X119697500Y-73787000D01*
X119697500Y-74041000D02*
X119697500Y-74295000D01*
X80264000Y-103441500D02*
X80518000Y-103441500D01*
X80264000Y-103441500D02*
X80010000Y-103441500D01*
X80264000Y-104330500D02*
X80010000Y-104330500D01*
X80264000Y-104330500D02*
X80518000Y-104330500D01*
X80264000Y-102298500D02*
X80518000Y-102298500D01*
X80264000Y-102298500D02*
X80010000Y-102298500D01*
X80264000Y-103187500D02*
X80010000Y-103187500D01*
X80264000Y-103187500D02*
X80518000Y-103187500D01*
X117094000Y-81153000D02*
X117094000Y-86487000D01*
X123952000Y-81153000D02*
X123952000Y-86487000D01*
X123952000Y-81153000D02*
X117094000Y-81153000D01*
X117094000Y-86487000D02*
X123952000Y-86487000D01*
X85344000Y-94716600D02*
X85344000Y-95427800D01*
X86182200Y-94716600D02*
X85344000Y-94716600D01*
X86182200Y-97561400D02*
X85344000Y-97561400D01*
X85344000Y-96850200D02*
X85344000Y-97561400D01*
X102616000Y-97561400D02*
X102616000Y-96850200D01*
X101777800Y-97561400D02*
X102616000Y-97561400D01*
X101777800Y-94716600D02*
X102616000Y-94716600D01*
X102616000Y-95427800D02*
X102616000Y-94716600D01*
D17*
X76029000Y-99901000D02*
X75779000Y-100001000D01*
X76029000Y-99901000D02*
X75779000Y-99801000D01*
X75279000Y-99901000D02*
X76029000Y-99901000D01*
X76029000Y-100851000D02*
X75779000Y-100951000D01*
X76029000Y-100851000D02*
X75779000Y-100751000D01*
X76029000Y-101501000D02*
X75779000Y-101601000D01*
X75279000Y-100851000D02*
X76029000Y-100851000D01*
X73529000Y-101501000D02*
X76029000Y-101501000D01*
X76029000Y-101501000D02*
X75779000Y-101401000D01*
X75279000Y-102001000D02*
X76029000Y-102001000D01*
X73529000Y-102501000D02*
X76029000Y-102501000D01*
X76029000Y-102501000D02*
X75779000Y-102401000D01*
X76029000Y-102001000D02*
X75779000Y-102101000D01*
X76029000Y-102501000D02*
X75779000Y-102601000D01*
X76029000Y-102001000D02*
X75779000Y-101901000D01*
X75279000Y-103001000D02*
X76029000Y-103001000D01*
X76029000Y-103001000D02*
X75779000Y-102901000D01*
X76029000Y-103001000D02*
X75779000Y-103101000D01*
X73529000Y-103501000D02*
X76029000Y-103501000D01*
X76029000Y-103501000D02*
X75779000Y-103601000D01*
X76029000Y-103501000D02*
X75779000Y-103401000D01*
X76029000Y-104001000D02*
X75779000Y-104101000D01*
X75279000Y-104001000D02*
X76029000Y-104001000D01*
X76029000Y-104001000D02*
X75779000Y-103901000D01*
X76029000Y-104501000D02*
X75779000Y-104601000D01*
X73529000Y-104501000D02*
X76029000Y-104501000D01*
X76029000Y-104501000D02*
X75779000Y-104401000D01*
X76029000Y-106601000D02*
X75779000Y-106701000D01*
X75279000Y-106601000D02*
X76029000Y-106601000D01*
X76029000Y-106601000D02*
X75779000Y-106501000D01*
X76029000Y-105651000D02*
X75779000Y-105751000D01*
X76029000Y-105651000D02*
X75779000Y-105551000D01*
X76029000Y-105001000D02*
X75779000Y-104901000D01*
X76029000Y-105001000D02*
X75779000Y-105101000D01*
X76029000Y-105651000D02*
X75279000Y-105651000D01*
X75279000Y-105001000D02*
X76029000Y-105001000D01*
D10*
X70829000Y-98781000D02*
X68961000Y-98781000D01*
X68961000Y-107721000D02*
X70829000Y-107721000D01*
X68961000Y-98781000D02*
X68961000Y-107721000D01*
X74829000Y-107721000D02*
X73529000Y-107721000D01*
X74829000Y-98781000D02*
X73529000Y-98781000D01*
X71255000Y-83244000D02*
X72255000Y-83244000D01*
X71255000Y-87444000D02*
X72255000Y-87444000D01*
X70055000Y-87444000D02*
X70155000Y-87444000D01*
X70055000Y-83244000D02*
X70055000Y-87444000D01*
X70155000Y-83244000D02*
X70055000Y-83244000D01*
X73455000Y-83244000D02*
X73355000Y-83244000D01*
X73455000Y-87444000D02*
X73355000Y-87444000D01*
X73455000Y-83244000D02*
X73455000Y-87444000D01*
X71255000Y-74354000D02*
X72255000Y-74354000D01*
X71255000Y-78554000D02*
X72255000Y-78554000D01*
X70055000Y-78554000D02*
X70155000Y-78554000D01*
X70055000Y-74354000D02*
X70055000Y-78554000D01*
X70155000Y-74354000D02*
X70055000Y-74354000D01*
X73455000Y-74354000D02*
X73355000Y-74354000D01*
X73455000Y-78554000D02*
X73355000Y-78554000D01*
X73455000Y-74354000D02*
X73455000Y-78554000D01*
X86106000Y-131000500D02*
X86360000Y-131000500D01*
X86106000Y-131000500D02*
X85852000Y-131000500D01*
X86106000Y-131889500D02*
X85852000Y-131889500D01*
X86106000Y-131889500D02*
X86360000Y-131889500D01*
X107950000Y-131889500D02*
X107696000Y-131889500D01*
X107950000Y-131889500D02*
X108204000Y-131889500D01*
X107950000Y-131000500D02*
X108204000Y-131000500D01*
X107950000Y-131000500D02*
X107696000Y-131000500D01*
X87249000Y-118173500D02*
X86995000Y-118173500D01*
X87249000Y-118173500D02*
X87503000Y-118173500D01*
X87249000Y-117284500D02*
X87503000Y-117284500D01*
X87249000Y-117284500D02*
X86995000Y-117284500D01*
X69088000Y-133223000D02*
X69088000Y-135763000D01*
X94488000Y-135763000D02*
X69596000Y-135763000D01*
X69596000Y-135763000D02*
X69088000Y-135763000D01*
X69088000Y-133223000D02*
X94488000Y-133223000D01*
X94488000Y-133223000D02*
X94488000Y-135763000D01*
D21*
X109746142Y-118073714D02*
X109492142Y-117710857D01*
X109310714Y-118073714D02*
X109310714Y-117311714D01*
X109601000Y-117311714D01*
X109673571Y-117348000D01*
X109709857Y-117384285D01*
X109746142Y-117456857D01*
X109746142Y-117565714D01*
X109709857Y-117638285D01*
X109673571Y-117674571D01*
X109601000Y-117710857D01*
X109310714Y-117710857D01*
X110471857Y-118073714D02*
X110036428Y-118073714D01*
X110254142Y-118073714D02*
X110254142Y-117311714D01*
X110181571Y-117420571D01*
X110109000Y-117493142D01*
X110036428Y-117529428D01*
X110762142Y-117384285D02*
X110798428Y-117348000D01*
X110871000Y-117311714D01*
X111052428Y-117311714D01*
X111125000Y-117348000D01*
X111161285Y-117384285D01*
X111197571Y-117456857D01*
X111197571Y-117529428D01*
X111161285Y-117638285D01*
X110725857Y-118073714D01*
X111197571Y-118073714D01*
D10*
X99114428Y-117172619D02*
X99114428Y-117995095D01*
X99162809Y-118091857D01*
X99211190Y-118140238D01*
X99307952Y-118188619D01*
X99501476Y-118188619D01*
X99598238Y-118140238D01*
X99646619Y-118091857D01*
X99695000Y-117995095D01*
X99695000Y-117172619D01*
X100178809Y-117656428D02*
X100517476Y-117656428D01*
X100662619Y-118188619D02*
X100178809Y-118188619D01*
X100178809Y-117172619D01*
X100662619Y-117172619D01*
X101001285Y-117172619D02*
X101678619Y-118188619D01*
X101678619Y-117172619D02*
X101001285Y-118188619D01*
X101920523Y-117172619D02*
X102501095Y-117172619D01*
X102210809Y-118188619D02*
X102210809Y-117172619D01*
X102791380Y-117269380D02*
X102839761Y-117221000D01*
X102936523Y-117172619D01*
X103178428Y-117172619D01*
X103275190Y-117221000D01*
X103323571Y-117269380D01*
X103371952Y-117366142D01*
X103371952Y-117462904D01*
X103323571Y-117608047D01*
X102743000Y-118188619D01*
X103371952Y-118188619D01*
X100819857Y-126431523D02*
X100094142Y-126431523D01*
X100457000Y-126431523D02*
X100457000Y-125161523D01*
X100336047Y-125342952D01*
X100215095Y-125463904D01*
X100094142Y-125524380D01*
X100094142Y-122742476D02*
X100154619Y-122682000D01*
X100275571Y-122621523D01*
X100577952Y-122621523D01*
X100698904Y-122682000D01*
X100759380Y-122742476D01*
X100819857Y-122863428D01*
X100819857Y-122984380D01*
X100759380Y-123165809D01*
X100033666Y-123891523D01*
X100819857Y-123891523D01*
X77651428Y-117172619D02*
X77651428Y-117995095D01*
X77699809Y-118091857D01*
X77748190Y-118140238D01*
X77844952Y-118188619D01*
X78038476Y-118188619D01*
X78135238Y-118140238D01*
X78183619Y-118091857D01*
X78232000Y-117995095D01*
X78232000Y-117172619D01*
X78715809Y-117656428D02*
X79054476Y-117656428D01*
X79199619Y-118188619D02*
X78715809Y-118188619D01*
X78715809Y-117172619D01*
X79199619Y-117172619D01*
X79538285Y-117172619D02*
X80215619Y-118188619D01*
X80215619Y-117172619D02*
X79538285Y-118188619D01*
X80457523Y-117172619D02*
X81038095Y-117172619D01*
X80747809Y-118188619D02*
X80747809Y-117172619D01*
X81908952Y-118188619D02*
X81328380Y-118188619D01*
X81618666Y-118188619D02*
X81618666Y-117172619D01*
X81521904Y-117317761D01*
X81425142Y-117414523D01*
X81328380Y-117462904D01*
X79991857Y-126431523D02*
X79266142Y-126431523D01*
X79629000Y-126431523D02*
X79629000Y-125161523D01*
X79508047Y-125342952D01*
X79387095Y-125463904D01*
X79266142Y-125524380D01*
X79266142Y-122742476D02*
X79326619Y-122682000D01*
X79447571Y-122621523D01*
X79749952Y-122621523D01*
X79870904Y-122682000D01*
X79931380Y-122742476D01*
X79991857Y-122863428D01*
X79991857Y-122984380D01*
X79931380Y-123165809D01*
X79205666Y-123891523D01*
X79991857Y-123891523D01*
X99670809Y-89359619D02*
X99332142Y-88875809D01*
X99090238Y-89359619D02*
X99090238Y-88343619D01*
X99477285Y-88343619D01*
X99574047Y-88392000D01*
X99622428Y-88440380D01*
X99670809Y-88537142D01*
X99670809Y-88682285D01*
X99622428Y-88779047D01*
X99574047Y-88827428D01*
X99477285Y-88875809D01*
X99090238Y-88875809D01*
X100106238Y-88827428D02*
X100444904Y-88827428D01*
X100590047Y-89359619D02*
X100106238Y-89359619D01*
X100106238Y-88343619D01*
X100590047Y-88343619D01*
X101509285Y-89359619D02*
X101025476Y-89359619D01*
X101025476Y-88343619D01*
X101799571Y-88440380D02*
X101847952Y-88392000D01*
X101944714Y-88343619D01*
X102186619Y-88343619D01*
X102283380Y-88392000D01*
X102331761Y-88440380D01*
X102380142Y-88537142D01*
X102380142Y-88633904D01*
X102331761Y-88779047D01*
X101751190Y-89359619D01*
X102380142Y-89359619D01*
X79858809Y-89359619D02*
X79520142Y-88875809D01*
X79278238Y-89359619D02*
X79278238Y-88343619D01*
X79665285Y-88343619D01*
X79762047Y-88392000D01*
X79810428Y-88440380D01*
X79858809Y-88537142D01*
X79858809Y-88682285D01*
X79810428Y-88779047D01*
X79762047Y-88827428D01*
X79665285Y-88875809D01*
X79278238Y-88875809D01*
X80294238Y-88827428D02*
X80632904Y-88827428D01*
X80778047Y-89359619D02*
X80294238Y-89359619D01*
X80294238Y-88343619D01*
X80778047Y-88343619D01*
X81697285Y-89359619D02*
X81213476Y-89359619D01*
X81213476Y-88343619D01*
X82568142Y-89359619D02*
X81987571Y-89359619D01*
X82277857Y-89359619D02*
X82277857Y-88343619D01*
X82181095Y-88488761D01*
X82084333Y-88585523D01*
X81987571Y-88633904D01*
D21*
X123788714Y-123571000D02*
X123425857Y-123825000D01*
X123788714Y-124006428D02*
X123026714Y-124006428D01*
X123026714Y-123716142D01*
X123063000Y-123643571D01*
X123099285Y-123607285D01*
X123171857Y-123571000D01*
X123280714Y-123571000D01*
X123353285Y-123607285D01*
X123389571Y-123643571D01*
X123425857Y-123716142D01*
X123425857Y-124006428D01*
X123026714Y-122917857D02*
X123026714Y-123063000D01*
X123063000Y-123135571D01*
X123099285Y-123171857D01*
X123208142Y-123244428D01*
X123353285Y-123280714D01*
X123643571Y-123280714D01*
X123716142Y-123244428D01*
X123752428Y-123208142D01*
X123788714Y-123135571D01*
X123788714Y-122990428D01*
X123752428Y-122917857D01*
X123716142Y-122881571D01*
X123643571Y-122845285D01*
X123462142Y-122845285D01*
X123389571Y-122881571D01*
X123353285Y-122917857D01*
X123317000Y-122990428D01*
X123317000Y-123135571D01*
X123353285Y-123208142D01*
X123389571Y-123244428D01*
X123462142Y-123280714D01*
X123788714Y-117729000D02*
X123425857Y-117983000D01*
X123788714Y-118164428D02*
X123026714Y-118164428D01*
X123026714Y-117874142D01*
X123063000Y-117801571D01*
X123099285Y-117765285D01*
X123171857Y-117729000D01*
X123280714Y-117729000D01*
X123353285Y-117765285D01*
X123389571Y-117801571D01*
X123425857Y-117874142D01*
X123425857Y-118164428D01*
X123026714Y-117039571D02*
X123026714Y-117402428D01*
X123389571Y-117438714D01*
X123353285Y-117402428D01*
X123317000Y-117329857D01*
X123317000Y-117148428D01*
X123353285Y-117075857D01*
X123389571Y-117039571D01*
X123462142Y-117003285D01*
X123643571Y-117003285D01*
X123716142Y-117039571D01*
X123752428Y-117075857D01*
X123788714Y-117148428D01*
X123788714Y-117329857D01*
X123752428Y-117402428D01*
X123716142Y-117438714D01*
X119089714Y-72879857D02*
X118726857Y-73133857D01*
X119089714Y-73315285D02*
X118327714Y-73315285D01*
X118327714Y-73025000D01*
X118364000Y-72952428D01*
X118400285Y-72916142D01*
X118472857Y-72879857D01*
X118581714Y-72879857D01*
X118654285Y-72916142D01*
X118690571Y-72952428D01*
X118726857Y-73025000D01*
X118726857Y-73315285D01*
X119089714Y-72154142D02*
X119089714Y-72589571D01*
X119089714Y-72371857D02*
X118327714Y-72371857D01*
X118436571Y-72444428D01*
X118509142Y-72517000D01*
X118545428Y-72589571D01*
X118327714Y-71682428D02*
X118327714Y-71609857D01*
X118364000Y-71537285D01*
X118400285Y-71501000D01*
X118472857Y-71464714D01*
X118618000Y-71428428D01*
X118799428Y-71428428D01*
X118944571Y-71464714D01*
X119017142Y-71501000D01*
X119053428Y-71537285D01*
X119089714Y-71609857D01*
X119089714Y-71682428D01*
X119053428Y-71755000D01*
X119017142Y-71791285D01*
X118944571Y-71827571D01*
X118799428Y-71863857D01*
X118618000Y-71863857D01*
X118472857Y-71827571D01*
X118400285Y-71791285D01*
X118364000Y-71755000D01*
X118327714Y-71682428D01*
X76036714Y-72263000D02*
X75673857Y-72517000D01*
X76036714Y-72698428D02*
X75274714Y-72698428D01*
X75274714Y-72408142D01*
X75311000Y-72335571D01*
X75347285Y-72299285D01*
X75419857Y-72263000D01*
X75528714Y-72263000D01*
X75601285Y-72299285D01*
X75637571Y-72335571D01*
X75673857Y-72408142D01*
X75673857Y-72698428D01*
X75274714Y-72009000D02*
X75274714Y-71501000D01*
X76036714Y-71827571D01*
D10*
X118950619Y-70224952D02*
X118950619Y-70708761D01*
X117934619Y-70708761D01*
X118418428Y-69886285D02*
X118418428Y-69547619D01*
X118950619Y-69402476D02*
X118950619Y-69886285D01*
X117934619Y-69886285D01*
X117934619Y-69402476D01*
X118950619Y-68967047D02*
X117934619Y-68967047D01*
X117934619Y-68725142D01*
X117983000Y-68580000D01*
X118079761Y-68483238D01*
X118176523Y-68434857D01*
X118370047Y-68386476D01*
X118515190Y-68386476D01*
X118708714Y-68434857D01*
X118805476Y-68483238D01*
X118902238Y-68580000D01*
X118950619Y-68725142D01*
X118950619Y-68967047D01*
X118031380Y-67999428D02*
X117983000Y-67951047D01*
X117934619Y-67854285D01*
X117934619Y-67612380D01*
X117983000Y-67515619D01*
X118031380Y-67467238D01*
X118128142Y-67418857D01*
X118224904Y-67418857D01*
X118370047Y-67467238D01*
X118950619Y-68047809D01*
X118950619Y-67418857D01*
X76151619Y-70224952D02*
X76151619Y-70708761D01*
X75135619Y-70708761D01*
X75619428Y-69886285D02*
X75619428Y-69547619D01*
X76151619Y-69402476D02*
X76151619Y-69886285D01*
X75135619Y-69886285D01*
X75135619Y-69402476D01*
X76151619Y-68967047D02*
X75135619Y-68967047D01*
X75135619Y-68725142D01*
X75184000Y-68580000D01*
X75280761Y-68483238D01*
X75377523Y-68434857D01*
X75571047Y-68386476D01*
X75716190Y-68386476D01*
X75909714Y-68434857D01*
X76006476Y-68483238D01*
X76103238Y-68580000D01*
X76151619Y-68725142D01*
X76151619Y-68967047D01*
X76151619Y-67418857D02*
X76151619Y-67999428D01*
X76151619Y-67709142D02*
X75135619Y-67709142D01*
X75280761Y-67805904D01*
X75377523Y-67902666D01*
X75425904Y-67999428D01*
X105803095Y-94566619D02*
X105803095Y-93550619D01*
X106045000Y-93550619D01*
X106190142Y-93599000D01*
X106286904Y-93695761D01*
X106335285Y-93792523D01*
X106383666Y-93986047D01*
X106383666Y-94131190D01*
X106335285Y-94324714D01*
X106286904Y-94421476D01*
X106190142Y-94518238D01*
X106045000Y-94566619D01*
X105803095Y-94566619D01*
X106770714Y-93647380D02*
X106819095Y-93599000D01*
X106915857Y-93550619D01*
X107157761Y-93550619D01*
X107254523Y-93599000D01*
X107302904Y-93647380D01*
X107351285Y-93744142D01*
X107351285Y-93840904D01*
X107302904Y-93986047D01*
X106722333Y-94566619D01*
X107351285Y-94566619D01*
X80657095Y-94566619D02*
X80657095Y-93550619D01*
X80899000Y-93550619D01*
X81044142Y-93599000D01*
X81140904Y-93695761D01*
X81189285Y-93792523D01*
X81237666Y-93986047D01*
X81237666Y-94131190D01*
X81189285Y-94324714D01*
X81140904Y-94421476D01*
X81044142Y-94518238D01*
X80899000Y-94566619D01*
X80657095Y-94566619D01*
X82205285Y-94566619D02*
X81624714Y-94566619D01*
X81915000Y-94566619D02*
X81915000Y-93550619D01*
X81818238Y-93695761D01*
X81721476Y-93792523D01*
X81624714Y-93840904D01*
X115733285Y-66529857D02*
X115684904Y-66578238D01*
X115539761Y-66626619D01*
X115443000Y-66626619D01*
X115297857Y-66578238D01*
X115201095Y-66481476D01*
X115152714Y-66384714D01*
X115104333Y-66191190D01*
X115104333Y-66046047D01*
X115152714Y-65852523D01*
X115201095Y-65755761D01*
X115297857Y-65659000D01*
X115443000Y-65610619D01*
X115539761Y-65610619D01*
X115684904Y-65659000D01*
X115733285Y-65707380D01*
X116362238Y-65610619D02*
X116555761Y-65610619D01*
X116652523Y-65659000D01*
X116749285Y-65755761D01*
X116797666Y-65949285D01*
X116797666Y-66287952D01*
X116749285Y-66481476D01*
X116652523Y-66578238D01*
X116555761Y-66626619D01*
X116362238Y-66626619D01*
X116265476Y-66578238D01*
X116168714Y-66481476D01*
X116120333Y-66287952D01*
X116120333Y-65949285D01*
X116168714Y-65755761D01*
X116265476Y-65659000D01*
X116362238Y-65610619D01*
X117233095Y-66626619D02*
X117233095Y-65610619D01*
X117813666Y-66626619D01*
X117813666Y-65610619D01*
X118200714Y-65610619D02*
X118878047Y-65610619D01*
X118442619Y-66626619D01*
X75855285Y-66529857D02*
X75806904Y-66578238D01*
X75661761Y-66626619D01*
X75565000Y-66626619D01*
X75419857Y-66578238D01*
X75323095Y-66481476D01*
X75274714Y-66384714D01*
X75226333Y-66191190D01*
X75226333Y-66046047D01*
X75274714Y-65852523D01*
X75323095Y-65755761D01*
X75419857Y-65659000D01*
X75565000Y-65610619D01*
X75661761Y-65610619D01*
X75806904Y-65659000D01*
X75855285Y-65707380D01*
X76484238Y-65610619D02*
X76677761Y-65610619D01*
X76774523Y-65659000D01*
X76871285Y-65755761D01*
X76919666Y-65949285D01*
X76919666Y-66287952D01*
X76871285Y-66481476D01*
X76774523Y-66578238D01*
X76677761Y-66626619D01*
X76484238Y-66626619D01*
X76387476Y-66578238D01*
X76290714Y-66481476D01*
X76242333Y-66287952D01*
X76242333Y-65949285D01*
X76290714Y-65755761D01*
X76387476Y-65659000D01*
X76484238Y-65610619D01*
X77355095Y-66626619D02*
X77355095Y-65610619D01*
X77935666Y-66626619D01*
X77935666Y-65610619D01*
X78854904Y-65610619D02*
X78661380Y-65610619D01*
X78564619Y-65659000D01*
X78516238Y-65707380D01*
X78419476Y-65852523D01*
X78371095Y-66046047D01*
X78371095Y-66433095D01*
X78419476Y-66529857D01*
X78467857Y-66578238D01*
X78564619Y-66626619D01*
X78758142Y-66626619D01*
X78854904Y-66578238D01*
X78903285Y-66529857D01*
X78951666Y-66433095D01*
X78951666Y-66191190D01*
X78903285Y-66094428D01*
X78854904Y-66046047D01*
X78758142Y-65997666D01*
X78564619Y-65997666D01*
X78467857Y-66046047D01*
X78419476Y-66094428D01*
X78371095Y-66191190D01*
X112177285Y-132442857D02*
X112128904Y-132491238D01*
X111983761Y-132539619D01*
X111887000Y-132539619D01*
X111741857Y-132491238D01*
X111645095Y-132394476D01*
X111596714Y-132297714D01*
X111548333Y-132104190D01*
X111548333Y-131959047D01*
X111596714Y-131765523D01*
X111645095Y-131668761D01*
X111741857Y-131572000D01*
X111887000Y-131523619D01*
X111983761Y-131523619D01*
X112128904Y-131572000D01*
X112177285Y-131620380D01*
X112806238Y-131523619D02*
X112999761Y-131523619D01*
X113096523Y-131572000D01*
X113193285Y-131668761D01*
X113241666Y-131862285D01*
X113241666Y-132200952D01*
X113193285Y-132394476D01*
X113096523Y-132491238D01*
X112999761Y-132539619D01*
X112806238Y-132539619D01*
X112709476Y-132491238D01*
X112612714Y-132394476D01*
X112564333Y-132200952D01*
X112564333Y-131862285D01*
X112612714Y-131668761D01*
X112709476Y-131572000D01*
X112806238Y-131523619D01*
X113677095Y-132539619D02*
X113677095Y-131523619D01*
X114257666Y-132539619D01*
X114257666Y-131523619D01*
X115176904Y-131862285D02*
X115176904Y-132539619D01*
X114935000Y-131475238D02*
X114693095Y-132200952D01*
X115322047Y-132200952D01*
X75770619Y-125397380D02*
X75770619Y-125881190D01*
X74754619Y-125881190D01*
X75238428Y-125058714D02*
X75238428Y-124720047D01*
X75770619Y-124574904D02*
X75770619Y-125058714D01*
X74754619Y-125058714D01*
X74754619Y-124574904D01*
X75770619Y-124139476D02*
X74754619Y-124139476D01*
X74754619Y-123897571D01*
X74803000Y-123752428D01*
X74899761Y-123655666D01*
X74996523Y-123607285D01*
X75190047Y-123558904D01*
X75335190Y-123558904D01*
X75528714Y-123607285D01*
X75625476Y-123655666D01*
X75722238Y-123752428D01*
X75770619Y-123897571D01*
X75770619Y-124139476D01*
X75867380Y-123365380D02*
X75867380Y-122591285D01*
X75722238Y-122397761D02*
X75770619Y-122252619D01*
X75770619Y-122010714D01*
X75722238Y-121913952D01*
X75673857Y-121865571D01*
X75577095Y-121817190D01*
X75480333Y-121817190D01*
X75383571Y-121865571D01*
X75335190Y-121913952D01*
X75286809Y-122010714D01*
X75238428Y-122204238D01*
X75190047Y-122301000D01*
X75141666Y-122349380D01*
X75044904Y-122397761D01*
X74948142Y-122397761D01*
X74851380Y-122349380D01*
X74803000Y-122301000D01*
X74754619Y-122204238D01*
X74754619Y-121962333D01*
X74803000Y-121817190D01*
X74754619Y-121526904D02*
X74754619Y-120946333D01*
X75770619Y-121236619D02*
X74754619Y-121236619D01*
X75770619Y-120027095D02*
X75286809Y-120365761D01*
X75770619Y-120607666D02*
X74754619Y-120607666D01*
X74754619Y-120220619D01*
X74803000Y-120123857D01*
X74851380Y-120075476D01*
X74948142Y-120027095D01*
X75093285Y-120027095D01*
X75190047Y-120075476D01*
X75238428Y-120123857D01*
X75286809Y-120220619D01*
X75286809Y-120607666D01*
X75770619Y-119591666D02*
X74754619Y-119591666D01*
X75770619Y-119107857D02*
X74754619Y-119107857D01*
X74754619Y-118720809D01*
X74803000Y-118624047D01*
X74851380Y-118575666D01*
X74948142Y-118527285D01*
X75093285Y-118527285D01*
X75190047Y-118575666D01*
X75238428Y-118624047D01*
X75286809Y-118720809D01*
X75286809Y-119107857D01*
X75238428Y-118091857D02*
X75238428Y-117753190D01*
X75770619Y-117608047D02*
X75770619Y-118091857D01*
X74754619Y-118091857D01*
X74754619Y-117608047D01*
X75770619Y-116640428D02*
X75770619Y-117221000D01*
X75770619Y-116930714D02*
X74754619Y-116930714D01*
X74899761Y-117027476D01*
X74996523Y-117124238D01*
X75044904Y-117221000D01*
X119204619Y-119682380D02*
X118188619Y-119682380D01*
X118914333Y-119343714D01*
X118188619Y-119005047D01*
X119204619Y-119005047D01*
X119204619Y-118521238D02*
X118188619Y-118521238D01*
X119107857Y-117456857D02*
X119156238Y-117505238D01*
X119204619Y-117650380D01*
X119204619Y-117747142D01*
X119156238Y-117892285D01*
X119059476Y-117989047D01*
X118962714Y-118037428D01*
X118769190Y-118085809D01*
X118624047Y-118085809D01*
X118430523Y-118037428D01*
X118333761Y-117989047D01*
X118237000Y-117892285D01*
X118188619Y-117747142D01*
X118188619Y-117650380D01*
X118237000Y-117505238D01*
X118285380Y-117456857D01*
X119204619Y-116489238D02*
X119204619Y-117069809D01*
X119204619Y-116779523D02*
X118188619Y-116779523D01*
X118333761Y-116876285D01*
X118430523Y-116973047D01*
X118478904Y-117069809D01*
X74966285Y-94596857D02*
X74917904Y-94645238D01*
X74772761Y-94693619D01*
X74676000Y-94693619D01*
X74530857Y-94645238D01*
X74434095Y-94548476D01*
X74385714Y-94451714D01*
X74337333Y-94258190D01*
X74337333Y-94113047D01*
X74385714Y-93919523D01*
X74434095Y-93822761D01*
X74530857Y-93726000D01*
X74676000Y-93677619D01*
X74772761Y-93677619D01*
X74917904Y-93726000D01*
X74966285Y-93774380D01*
X75595238Y-93677619D02*
X75788761Y-93677619D01*
X75885523Y-93726000D01*
X75982285Y-93822761D01*
X76030666Y-94016285D01*
X76030666Y-94354952D01*
X75982285Y-94548476D01*
X75885523Y-94645238D01*
X75788761Y-94693619D01*
X75595238Y-94693619D01*
X75498476Y-94645238D01*
X75401714Y-94548476D01*
X75353333Y-94354952D01*
X75353333Y-94016285D01*
X75401714Y-93822761D01*
X75498476Y-93726000D01*
X75595238Y-93677619D01*
X76466095Y-94693619D02*
X76466095Y-93677619D01*
X77046666Y-94693619D01*
X77046666Y-93677619D01*
X77482095Y-93774380D02*
X77530476Y-93726000D01*
X77627238Y-93677619D01*
X77869142Y-93677619D01*
X77965904Y-93726000D01*
X78014285Y-93774380D01*
X78062666Y-93871142D01*
X78062666Y-93967904D01*
X78014285Y-94113047D01*
X77433714Y-94693619D01*
X78062666Y-94693619D01*
X74966285Y-112757857D02*
X74917904Y-112806238D01*
X74772761Y-112854619D01*
X74676000Y-112854619D01*
X74530857Y-112806238D01*
X74434095Y-112709476D01*
X74385714Y-112612714D01*
X74337333Y-112419190D01*
X74337333Y-112274047D01*
X74385714Y-112080523D01*
X74434095Y-111983761D01*
X74530857Y-111887000D01*
X74676000Y-111838619D01*
X74772761Y-111838619D01*
X74917904Y-111887000D01*
X74966285Y-111935380D01*
X75595238Y-111838619D02*
X75788761Y-111838619D01*
X75885523Y-111887000D01*
X75982285Y-111983761D01*
X76030666Y-112177285D01*
X76030666Y-112515952D01*
X75982285Y-112709476D01*
X75885523Y-112806238D01*
X75788761Y-112854619D01*
X75595238Y-112854619D01*
X75498476Y-112806238D01*
X75401714Y-112709476D01*
X75353333Y-112515952D01*
X75353333Y-112177285D01*
X75401714Y-111983761D01*
X75498476Y-111887000D01*
X75595238Y-111838619D01*
X76466095Y-112854619D02*
X76466095Y-111838619D01*
X77046666Y-112854619D01*
X77046666Y-111838619D01*
X78062666Y-112854619D02*
X77482095Y-112854619D01*
X77772380Y-112854619D02*
X77772380Y-111838619D01*
X77675619Y-111983761D01*
X77578857Y-112080523D01*
X77482095Y-112128904D01*
D21*
X70757142Y-120523000D02*
X70793428Y-120559285D01*
X70829714Y-120668142D01*
X70829714Y-120740714D01*
X70793428Y-120849571D01*
X70720857Y-120922142D01*
X70648285Y-120958428D01*
X70503142Y-120994714D01*
X70394285Y-120994714D01*
X70249142Y-120958428D01*
X70176571Y-120922142D01*
X70104000Y-120849571D01*
X70067714Y-120740714D01*
X70067714Y-120668142D01*
X70104000Y-120559285D01*
X70140285Y-120523000D01*
X70829714Y-119797285D02*
X70829714Y-120232714D01*
X70829714Y-120015000D02*
X70067714Y-120015000D01*
X70176571Y-120087571D01*
X70249142Y-120160142D01*
X70285428Y-120232714D01*
X83566000Y-131971142D02*
X83529714Y-132007428D01*
X83420857Y-132043714D01*
X83348285Y-132043714D01*
X83239428Y-132007428D01*
X83166857Y-131934857D01*
X83130571Y-131862285D01*
X83094285Y-131717142D01*
X83094285Y-131608285D01*
X83130571Y-131463142D01*
X83166857Y-131390571D01*
X83239428Y-131318000D01*
X83348285Y-131281714D01*
X83420857Y-131281714D01*
X83529714Y-131318000D01*
X83566000Y-131354285D01*
X83820000Y-131281714D02*
X84291714Y-131281714D01*
X84037714Y-131572000D01*
X84146571Y-131572000D01*
X84219142Y-131608285D01*
X84255428Y-131644571D01*
X84291714Y-131717142D01*
X84291714Y-131898571D01*
X84255428Y-131971142D01*
X84219142Y-132007428D01*
X84146571Y-132043714D01*
X83928857Y-132043714D01*
X83856285Y-132007428D01*
X83820000Y-131971142D01*
X103886000Y-131971142D02*
X103849714Y-132007428D01*
X103740857Y-132043714D01*
X103668285Y-132043714D01*
X103559428Y-132007428D01*
X103486857Y-131934857D01*
X103450571Y-131862285D01*
X103414285Y-131717142D01*
X103414285Y-131608285D01*
X103450571Y-131463142D01*
X103486857Y-131390571D01*
X103559428Y-131318000D01*
X103668285Y-131281714D01*
X103740857Y-131281714D01*
X103849714Y-131318000D01*
X103886000Y-131354285D01*
X104176285Y-131354285D02*
X104212571Y-131318000D01*
X104285142Y-131281714D01*
X104466571Y-131281714D01*
X104539142Y-131318000D01*
X104575428Y-131354285D01*
X104611714Y-131426857D01*
X104611714Y-131499428D01*
X104575428Y-131608285D01*
X104140000Y-132043714D01*
X104611714Y-132043714D01*
D10*
X121321285Y-78721857D02*
X121272904Y-78770238D01*
X121127761Y-78818619D01*
X121031000Y-78818619D01*
X120885857Y-78770238D01*
X120789095Y-78673476D01*
X120740714Y-78576714D01*
X120692333Y-78383190D01*
X120692333Y-78238047D01*
X120740714Y-78044523D01*
X120789095Y-77947761D01*
X120885857Y-77851000D01*
X121031000Y-77802619D01*
X121127761Y-77802619D01*
X121272904Y-77851000D01*
X121321285Y-77899380D01*
X121950238Y-77802619D02*
X122143761Y-77802619D01*
X122240523Y-77851000D01*
X122337285Y-77947761D01*
X122385666Y-78141285D01*
X122385666Y-78479952D01*
X122337285Y-78673476D01*
X122240523Y-78770238D01*
X122143761Y-78818619D01*
X121950238Y-78818619D01*
X121853476Y-78770238D01*
X121756714Y-78673476D01*
X121708333Y-78479952D01*
X121708333Y-78141285D01*
X121756714Y-77947761D01*
X121853476Y-77851000D01*
X121950238Y-77802619D01*
X122821095Y-78818619D02*
X122821095Y-77802619D01*
X123401666Y-78818619D01*
X123401666Y-77802619D01*
X123788714Y-77802619D02*
X124417666Y-77802619D01*
X124079000Y-78189666D01*
X124224142Y-78189666D01*
X124320904Y-78238047D01*
X124369285Y-78286428D01*
X124417666Y-78383190D01*
X124417666Y-78625095D01*
X124369285Y-78721857D01*
X124320904Y-78770238D01*
X124224142Y-78818619D01*
X123933857Y-78818619D01*
X123837095Y-78770238D01*
X123788714Y-78721857D01*
D21*
X119089714Y-76454000D02*
X118726857Y-76708000D01*
X119089714Y-76889428D02*
X118327714Y-76889428D01*
X118327714Y-76599142D01*
X118364000Y-76526571D01*
X118400285Y-76490285D01*
X118472857Y-76454000D01*
X118581714Y-76454000D01*
X118654285Y-76490285D01*
X118690571Y-76526571D01*
X118726857Y-76599142D01*
X118726857Y-76889428D01*
X119089714Y-75728285D02*
X119089714Y-76163714D01*
X119089714Y-75946000D02*
X118327714Y-75946000D01*
X118436571Y-76018571D01*
X118509142Y-76091142D01*
X118545428Y-76163714D01*
X119089714Y-74676000D02*
X118726857Y-74930000D01*
X119089714Y-75111428D02*
X118327714Y-75111428D01*
X118327714Y-74821142D01*
X118364000Y-74748571D01*
X118400285Y-74712285D01*
X118472857Y-74676000D01*
X118581714Y-74676000D01*
X118654285Y-74712285D01*
X118690571Y-74748571D01*
X118726857Y-74821142D01*
X118726857Y-75111428D01*
X118400285Y-74385714D02*
X118364000Y-74349428D01*
X118327714Y-74276857D01*
X118327714Y-74095428D01*
X118364000Y-74022857D01*
X118400285Y-73986571D01*
X118472857Y-73950285D01*
X118545428Y-73950285D01*
X118654285Y-73986571D01*
X119089714Y-74422000D01*
X119089714Y-73950285D01*
X82042000Y-104484714D02*
X81788000Y-104121857D01*
X81606571Y-104484714D02*
X81606571Y-103722714D01*
X81896857Y-103722714D01*
X81969428Y-103759000D01*
X82005714Y-103795285D01*
X82042000Y-103867857D01*
X82042000Y-103976714D01*
X82005714Y-104049285D01*
X81969428Y-104085571D01*
X81896857Y-104121857D01*
X81606571Y-104121857D01*
X82296000Y-103722714D02*
X82767714Y-103722714D01*
X82513714Y-104013000D01*
X82622571Y-104013000D01*
X82695142Y-104049285D01*
X82731428Y-104085571D01*
X82767714Y-104158142D01*
X82767714Y-104339571D01*
X82731428Y-104412142D01*
X82695142Y-104448428D01*
X82622571Y-104484714D01*
X82404857Y-104484714D01*
X82332285Y-104448428D01*
X82296000Y-104412142D01*
X82042000Y-103087714D02*
X81788000Y-102724857D01*
X81606571Y-103087714D02*
X81606571Y-102325714D01*
X81896857Y-102325714D01*
X81969428Y-102362000D01*
X82005714Y-102398285D01*
X82042000Y-102470857D01*
X82042000Y-102579714D01*
X82005714Y-102652285D01*
X81969428Y-102688571D01*
X81896857Y-102724857D01*
X81606571Y-102724857D01*
X82695142Y-102579714D02*
X82695142Y-103087714D01*
X82513714Y-102289428D02*
X82332285Y-102833714D01*
X82804000Y-102833714D01*
D10*
X118007190Y-89946238D02*
X118152333Y-89994619D01*
X118394238Y-89994619D01*
X118491000Y-89946238D01*
X118539380Y-89897857D01*
X118587761Y-89801095D01*
X118587761Y-89704333D01*
X118539380Y-89607571D01*
X118491000Y-89559190D01*
X118394238Y-89510809D01*
X118200714Y-89462428D01*
X118103952Y-89414047D01*
X118055571Y-89365666D01*
X118007190Y-89268904D01*
X118007190Y-89172142D01*
X118055571Y-89075380D01*
X118103952Y-89027000D01*
X118200714Y-88978619D01*
X118442619Y-88978619D01*
X118587761Y-89027000D01*
X118926428Y-88978619D02*
X119168333Y-89994619D01*
X119361857Y-89268904D01*
X119555380Y-89994619D01*
X119797285Y-88978619D01*
X120184333Y-89994619D02*
X120184333Y-88978619D01*
X120523000Y-88978619D02*
X121103571Y-88978619D01*
X120813285Y-89994619D02*
X120813285Y-88978619D01*
X122022809Y-89897857D02*
X121974428Y-89946238D01*
X121829285Y-89994619D01*
X121732523Y-89994619D01*
X121587380Y-89946238D01*
X121490619Y-89849476D01*
X121442238Y-89752714D01*
X121393857Y-89559190D01*
X121393857Y-89414047D01*
X121442238Y-89220523D01*
X121490619Y-89123761D01*
X121587380Y-89027000D01*
X121732523Y-88978619D01*
X121829285Y-88978619D01*
X121974428Y-89027000D01*
X122022809Y-89075380D01*
X122458238Y-89994619D02*
X122458238Y-88978619D01*
X122458238Y-89462428D02*
X123038809Y-89462428D01*
X123038809Y-89994619D02*
X123038809Y-88978619D01*
X124054809Y-89994619D02*
X123474238Y-89994619D01*
X123764523Y-89994619D02*
X123764523Y-88978619D01*
X123667761Y-89123761D01*
X123571000Y-89220523D01*
X123474238Y-89268904D01*
X118811523Y-81951285D02*
X118811523Y-82628619D01*
X118569619Y-81564238D02*
X118327714Y-82289952D01*
X118956666Y-82289952D01*
X117287523Y-79792285D02*
X117287523Y-80469619D01*
X117045619Y-79405238D02*
X116803714Y-80130952D01*
X117432666Y-80130952D01*
X119549333Y-81612619D02*
X120178285Y-81612619D01*
X119839619Y-81999666D01*
X119984761Y-81999666D01*
X120081523Y-82048047D01*
X120129904Y-82096428D01*
X120178285Y-82193190D01*
X120178285Y-82435095D01*
X120129904Y-82531857D01*
X120081523Y-82580238D01*
X119984761Y-82628619D01*
X119694476Y-82628619D01*
X119597714Y-82580238D01*
X119549333Y-82531857D01*
X120867714Y-81709380D02*
X120916095Y-81661000D01*
X121012857Y-81612619D01*
X121254761Y-81612619D01*
X121351523Y-81661000D01*
X121399904Y-81709380D01*
X121448285Y-81806142D01*
X121448285Y-81902904D01*
X121399904Y-82048047D01*
X120819333Y-82628619D01*
X121448285Y-82628619D01*
X123988285Y-80469619D02*
X123407714Y-80469619D01*
X123698000Y-80469619D02*
X123698000Y-79453619D01*
X123601238Y-79598761D01*
X123504476Y-79695523D01*
X123407714Y-79743904D01*
X123988285Y-80469619D02*
X123407714Y-80469619D01*
X123698000Y-80469619D02*
X123698000Y-79453619D01*
X123601238Y-79598761D01*
X123504476Y-79695523D01*
X123407714Y-79743904D01*
X115957047Y-87200619D02*
X116150571Y-87200619D01*
X116247333Y-87249000D01*
X116344095Y-87345761D01*
X116392476Y-87539285D01*
X116392476Y-87877952D01*
X116344095Y-88071476D01*
X116247333Y-88168238D01*
X116150571Y-88216619D01*
X115957047Y-88216619D01*
X115860285Y-88168238D01*
X115763523Y-88071476D01*
X115715142Y-87877952D01*
X115715142Y-87539285D01*
X115763523Y-87345761D01*
X115860285Y-87249000D01*
X115957047Y-87200619D01*
X116827904Y-88216619D02*
X116827904Y-87200619D01*
X117408476Y-88216619D01*
X117408476Y-87200619D01*
X121164047Y-84787619D02*
X121357571Y-84787619D01*
X121454333Y-84836000D01*
X121551095Y-84932761D01*
X121599476Y-85126285D01*
X121599476Y-85464952D01*
X121551095Y-85658476D01*
X121454333Y-85755238D01*
X121357571Y-85803619D01*
X121164047Y-85803619D01*
X121067285Y-85755238D01*
X120970523Y-85658476D01*
X120922142Y-85464952D01*
X120922142Y-85126285D01*
X120970523Y-84932761D01*
X121067285Y-84836000D01*
X121164047Y-84787619D01*
X122034904Y-85803619D02*
X122034904Y-84787619D01*
X122615476Y-85803619D01*
X122615476Y-84787619D01*
X88379904Y-95582619D02*
X88960476Y-95582619D01*
X88670190Y-96598619D02*
X88670190Y-95582619D01*
X89831333Y-96598619D02*
X89250761Y-96598619D01*
X89541047Y-96598619D02*
X89541047Y-95582619D01*
X89444285Y-95727761D01*
X89347523Y-95824523D01*
X89250761Y-95872904D01*
X98031904Y-95582619D02*
X98612476Y-95582619D01*
X98322190Y-96598619D02*
X98322190Y-95582619D01*
X98902761Y-95679380D02*
X98951142Y-95631000D01*
X99047904Y-95582619D01*
X99289809Y-95582619D01*
X99386571Y-95631000D01*
X99434952Y-95679380D01*
X99483333Y-95776142D01*
X99483333Y-95872904D01*
X99434952Y-96018047D01*
X98854380Y-96598619D01*
X99483333Y-96598619D01*
X70624095Y-95836619D02*
X70624095Y-96659095D01*
X70672476Y-96755857D01*
X70720857Y-96804238D01*
X70817619Y-96852619D01*
X71011142Y-96852619D01*
X71107904Y-96804238D01*
X71156285Y-96755857D01*
X71204666Y-96659095D01*
X71204666Y-95836619D01*
X71640095Y-96804238D02*
X71785238Y-96852619D01*
X72027142Y-96852619D01*
X72123904Y-96804238D01*
X72172285Y-96755857D01*
X72220666Y-96659095D01*
X72220666Y-96562333D01*
X72172285Y-96465571D01*
X72123904Y-96417190D01*
X72027142Y-96368809D01*
X71833619Y-96320428D01*
X71736857Y-96272047D01*
X71688476Y-96223666D01*
X71640095Y-96126904D01*
X71640095Y-96030142D01*
X71688476Y-95933380D01*
X71736857Y-95885000D01*
X71833619Y-95836619D01*
X72075523Y-95836619D01*
X72220666Y-95885000D01*
X72994761Y-96320428D02*
X73139904Y-96368809D01*
X73188285Y-96417190D01*
X73236666Y-96513952D01*
X73236666Y-96659095D01*
X73188285Y-96755857D01*
X73139904Y-96804238D01*
X73043142Y-96852619D01*
X72656095Y-96852619D01*
X72656095Y-95836619D01*
X72994761Y-95836619D01*
X73091523Y-95885000D01*
X73139904Y-95933380D01*
X73188285Y-96030142D01*
X73188285Y-96126904D01*
X73139904Y-96223666D01*
X73091523Y-96272047D01*
X72994761Y-96320428D01*
X72656095Y-96320428D01*
X74204285Y-96852619D02*
X73623714Y-96852619D01*
X73914000Y-96852619D02*
X73914000Y-95836619D01*
X73817238Y-95981761D01*
X73720476Y-96078523D01*
X73623714Y-96126904D01*
X64933285Y-120758857D02*
X64993761Y-120577428D01*
X65054238Y-120516952D01*
X65175190Y-120456476D01*
X65356619Y-120456476D01*
X65477571Y-120516952D01*
X65538047Y-120577428D01*
X65598523Y-120698380D01*
X65598523Y-121182190D01*
X64328523Y-121182190D01*
X64328523Y-120758857D01*
X64389000Y-120637904D01*
X64449476Y-120577428D01*
X64570428Y-120516952D01*
X64691380Y-120516952D01*
X64812333Y-120577428D01*
X64872809Y-120637904D01*
X64933285Y-120758857D01*
X64933285Y-121182190D01*
X65175190Y-119912190D02*
X65175190Y-119367904D01*
X64751857Y-119912190D02*
X65598523Y-119912190D01*
X64751857Y-119367904D02*
X65598523Y-119367904D01*
X64751857Y-118763142D02*
X65598523Y-118763142D01*
X64751857Y-118158380D01*
X65598523Y-118158380D01*
X65598523Y-117553619D02*
X64751857Y-117553619D01*
X65417095Y-117190761D01*
X64751857Y-116827904D01*
X65598523Y-116827904D01*
X65598523Y-115678857D02*
X64933285Y-115678857D01*
X64812333Y-115739333D01*
X64751857Y-115860285D01*
X64751857Y-116102190D01*
X64812333Y-116223142D01*
X65538047Y-115678857D02*
X65598523Y-115799809D01*
X65598523Y-116102190D01*
X65538047Y-116223142D01*
X65417095Y-116283619D01*
X65296142Y-116283619D01*
X65175190Y-116223142D01*
X65114714Y-116102190D01*
X65114714Y-115799809D01*
X65054238Y-115678857D01*
X65175190Y-115074095D02*
X65175190Y-114529809D01*
X64751857Y-115074095D02*
X65598523Y-115074095D01*
X64751857Y-114529809D02*
X65598523Y-114529809D01*
X64751857Y-113925047D02*
X65598523Y-113925047D01*
X64751857Y-113320285D01*
X65598523Y-113320285D01*
X65538047Y-112231714D02*
X65598523Y-112352666D01*
X65598523Y-112594571D01*
X65538047Y-112715523D01*
X65417095Y-112776000D01*
X64933285Y-112776000D01*
X64812333Y-112715523D01*
X64751857Y-112594571D01*
X64751857Y-112352666D01*
X64812333Y-112231714D01*
X64933285Y-112171238D01*
X65054238Y-112171238D01*
X65175190Y-112776000D01*
X65477571Y-111626952D02*
X65538047Y-111566476D01*
X65598523Y-111626952D01*
X65538047Y-111687428D01*
X65477571Y-111626952D01*
X65598523Y-111626952D01*
X65114714Y-111626952D02*
X64389000Y-111687428D01*
X64328523Y-111626952D01*
X64389000Y-111566476D01*
X65114714Y-111626952D01*
X64328523Y-111626952D01*
X65598523Y-109691714D02*
X64328523Y-109691714D01*
X64509952Y-109812666D02*
X64509952Y-109570761D01*
X64570428Y-109389333D01*
X64691380Y-109268380D01*
X64812333Y-109207904D01*
X65054238Y-109207904D01*
X65175190Y-109268380D01*
X65296142Y-109389333D01*
X65356619Y-109570761D01*
X65356619Y-109812666D01*
X65296142Y-109994095D01*
X65175190Y-110115047D01*
X65054238Y-110175523D01*
X64812333Y-110175523D01*
X64691380Y-110115047D01*
X64570428Y-109994095D01*
X64509952Y-109812666D01*
X64751857Y-108724095D02*
X66021857Y-108724095D01*
X64812333Y-108724095D02*
X64751857Y-108603142D01*
X64751857Y-108361238D01*
X64812333Y-108240285D01*
X64872809Y-108179809D01*
X64993761Y-108119333D01*
X65356619Y-108119333D01*
X65477571Y-108179809D01*
X65538047Y-108240285D01*
X65598523Y-108361238D01*
X65598523Y-108603142D01*
X65538047Y-108724095D01*
X65538047Y-107091238D02*
X65598523Y-107212190D01*
X65598523Y-107454095D01*
X65538047Y-107575047D01*
X65417095Y-107635523D01*
X64933285Y-107635523D01*
X64812333Y-107575047D01*
X64751857Y-107454095D01*
X64751857Y-107212190D01*
X64812333Y-107091238D01*
X64933285Y-107030761D01*
X65054238Y-107030761D01*
X65175190Y-107635523D01*
X65175190Y-106365523D02*
X65175190Y-106244571D01*
X64812333Y-106607428D02*
X64751857Y-106486476D01*
X64751857Y-106244571D01*
X64812333Y-106123619D01*
X64933285Y-106063142D01*
X64993761Y-106063142D01*
X65114714Y-106123619D01*
X65175190Y-106244571D01*
X65235666Y-106123619D01*
X65356619Y-106063142D01*
X65417095Y-106063142D01*
X65538047Y-106123619D01*
X65598523Y-106244571D01*
X65598523Y-106486476D01*
X65538047Y-106607428D01*
X65598523Y-105337428D02*
X65538047Y-105458380D01*
X65477571Y-105518857D01*
X65356619Y-105579333D01*
X64993761Y-105579333D01*
X64872809Y-105518857D01*
X64812333Y-105458380D01*
X64751857Y-105337428D01*
X64751857Y-105156000D01*
X64812333Y-105035047D01*
X64872809Y-104974571D01*
X64993761Y-104914095D01*
X65356619Y-104914095D01*
X65477571Y-104974571D01*
X65538047Y-105035047D01*
X65598523Y-105156000D01*
X65598523Y-105337428D01*
X65175190Y-104067428D02*
X65235666Y-103886000D01*
X65356619Y-103825523D01*
X65417095Y-103825523D01*
X65538047Y-103886000D01*
X65598523Y-104006952D01*
X65598523Y-104369809D01*
X64751857Y-104369809D01*
X64751857Y-104067428D01*
X64812333Y-103946476D01*
X64933285Y-103886000D01*
X64993761Y-103886000D01*
X65114714Y-103946476D01*
X65175190Y-104067428D01*
X65175190Y-104369809D01*
X65598523Y-102736952D02*
X64933285Y-102736952D01*
X64812333Y-102797428D01*
X64751857Y-102918380D01*
X64751857Y-103160285D01*
X64812333Y-103281238D01*
X65538047Y-102736952D02*
X65598523Y-102857904D01*
X65598523Y-103160285D01*
X65538047Y-103281238D01*
X65417095Y-103341714D01*
X65296142Y-103341714D01*
X65175190Y-103281238D01*
X65114714Y-103160285D01*
X65114714Y-102857904D01*
X65054238Y-102736952D01*
X65175190Y-102132190D02*
X65175190Y-101587904D01*
X64751857Y-102132190D02*
X65598523Y-102132190D01*
X64751857Y-101587904D02*
X65598523Y-101587904D01*
X65538047Y-100499333D02*
X65598523Y-100620285D01*
X65598523Y-100862190D01*
X65538047Y-100983142D01*
X65417095Y-101043619D01*
X64933285Y-101043619D01*
X64812333Y-100983142D01*
X64751857Y-100862190D01*
X64751857Y-100620285D01*
X64812333Y-100499333D01*
X64933285Y-100438857D01*
X65054238Y-100438857D01*
X65175190Y-101043619D01*
X65538047Y-98382666D02*
X65598523Y-98503619D01*
X65598523Y-98745523D01*
X65538047Y-98866476D01*
X65477571Y-98926952D01*
X65356619Y-98987428D01*
X64993761Y-98987428D01*
X64872809Y-98926952D01*
X64812333Y-98866476D01*
X64751857Y-98745523D01*
X64751857Y-98503619D01*
X64812333Y-98382666D01*
X65598523Y-96870761D02*
X64328523Y-96870761D01*
X64328523Y-96568380D01*
X64389000Y-96386952D01*
X64509952Y-96266000D01*
X64630904Y-96205523D01*
X64872809Y-96145047D01*
X65054238Y-96145047D01*
X65296142Y-96205523D01*
X65417095Y-96266000D01*
X65538047Y-96386952D01*
X65598523Y-96568380D01*
X65598523Y-96870761D01*
X65598523Y-95600761D02*
X64751857Y-95600761D01*
X64993761Y-95600761D02*
X64872809Y-95540285D01*
X64812333Y-95479809D01*
X64751857Y-95358857D01*
X64751857Y-95237904D01*
X65598523Y-94814571D02*
X64751857Y-94814571D01*
X64328523Y-94814571D02*
X64389000Y-94875047D01*
X64449476Y-94814571D01*
X64389000Y-94754095D01*
X64328523Y-94814571D01*
X64449476Y-94814571D01*
X65598523Y-94028380D02*
X65538047Y-94149333D01*
X65417095Y-94209809D01*
X64328523Y-94209809D01*
X65598523Y-93363142D02*
X65538047Y-93484095D01*
X65417095Y-93544571D01*
X64328523Y-93544571D01*
X65114714Y-92879333D02*
X65114714Y-91911714D01*
X65538047Y-91367428D02*
X65598523Y-91186000D01*
X65598523Y-90883619D01*
X65538047Y-90762666D01*
X65477571Y-90702190D01*
X65356619Y-90641714D01*
X65235666Y-90641714D01*
X65114714Y-90702190D01*
X65054238Y-90762666D01*
X64993761Y-90883619D01*
X64933285Y-91125523D01*
X64872809Y-91246476D01*
X64812333Y-91306952D01*
X64691380Y-91367428D01*
X64570428Y-91367428D01*
X64449476Y-91306952D01*
X64389000Y-91246476D01*
X64328523Y-91125523D01*
X64328523Y-90823142D01*
X64389000Y-90641714D01*
X65598523Y-89916000D02*
X65538047Y-90036952D01*
X65417095Y-90097428D01*
X64328523Y-90097428D01*
X65598523Y-89250761D02*
X65538047Y-89371714D01*
X65477571Y-89432190D01*
X65356619Y-89492666D01*
X64993761Y-89492666D01*
X64872809Y-89432190D01*
X64812333Y-89371714D01*
X64751857Y-89250761D01*
X64751857Y-89069333D01*
X64812333Y-88948380D01*
X64872809Y-88887904D01*
X64993761Y-88827428D01*
X65356619Y-88827428D01*
X65477571Y-88887904D01*
X65538047Y-88948380D01*
X65598523Y-89069333D01*
X65598523Y-89250761D01*
X64751857Y-88464571D02*
X64751857Y-87980761D01*
X64328523Y-88283142D02*
X65417095Y-88283142D01*
X65538047Y-88222666D01*
X65598523Y-88101714D01*
X65598523Y-87980761D01*
X65538047Y-87617904D02*
X65598523Y-87496952D01*
X65598523Y-87255047D01*
X65538047Y-87134095D01*
X65417095Y-87073619D01*
X65356619Y-87073619D01*
X65235666Y-87134095D01*
X65175190Y-87255047D01*
X65175190Y-87436476D01*
X65114714Y-87557428D01*
X64993761Y-87617904D01*
X64933285Y-87617904D01*
X64812333Y-87557428D01*
X64751857Y-87436476D01*
X64751857Y-87255047D01*
X64812333Y-87134095D01*
X65477571Y-86529333D02*
X65538047Y-86468857D01*
X65598523Y-86529333D01*
X65538047Y-86589809D01*
X65477571Y-86529333D01*
X65598523Y-86529333D01*
X65114714Y-86529333D02*
X64389000Y-86589809D01*
X64328523Y-86529333D01*
X64389000Y-86468857D01*
X65114714Y-86529333D01*
X64328523Y-86529333D01*
X65477571Y-85924571D02*
X65538047Y-85864095D01*
X65598523Y-85924571D01*
X65538047Y-85985047D01*
X65477571Y-85924571D01*
X65598523Y-85924571D01*
X65114714Y-85924571D02*
X64389000Y-85985047D01*
X64328523Y-85924571D01*
X64389000Y-85864095D01*
X65114714Y-85924571D01*
X64328523Y-85924571D01*
X65477571Y-85319809D02*
X65538047Y-85259333D01*
X65598523Y-85319809D01*
X65538047Y-85380285D01*
X65477571Y-85319809D01*
X65598523Y-85319809D01*
X65114714Y-85319809D02*
X64389000Y-85380285D01*
X64328523Y-85319809D01*
X64389000Y-85259333D01*
X65114714Y-85319809D01*
X64328523Y-85319809D01*
D17*
X73891952Y-106247000D02*
X73843571Y-106222809D01*
X73771000Y-106222809D01*
X73698428Y-106247000D01*
X73650047Y-106295380D01*
X73625857Y-106343761D01*
X73601666Y-106440523D01*
X73601666Y-106513095D01*
X73625857Y-106609857D01*
X73650047Y-106658238D01*
X73698428Y-106706619D01*
X73771000Y-106730809D01*
X73819380Y-106730809D01*
X73891952Y-106706619D01*
X73916142Y-106682428D01*
X73916142Y-106513095D01*
X73819380Y-106513095D01*
X74133857Y-106730809D02*
X74133857Y-106222809D01*
X74424142Y-106730809D01*
X74424142Y-106222809D01*
X74666047Y-106730809D02*
X74666047Y-106222809D01*
X74787000Y-106222809D01*
X74859571Y-106247000D01*
X74907952Y-106295380D01*
X74932142Y-106343761D01*
X74956333Y-106440523D01*
X74956333Y-106513095D01*
X74932142Y-106609857D01*
X74907952Y-106658238D01*
X74859571Y-106706619D01*
X74787000Y-106730809D01*
X74666047Y-106730809D01*
X73097666Y-105472809D02*
X73267000Y-105980809D01*
X73436333Y-105472809D01*
X73775000Y-105714714D02*
X73847571Y-105738904D01*
X73871761Y-105763095D01*
X73895952Y-105811476D01*
X73895952Y-105884047D01*
X73871761Y-105932428D01*
X73847571Y-105956619D01*
X73799190Y-105980809D01*
X73605666Y-105980809D01*
X73605666Y-105472809D01*
X73775000Y-105472809D01*
X73823380Y-105497000D01*
X73847571Y-105521190D01*
X73871761Y-105569571D01*
X73871761Y-105617952D01*
X73847571Y-105666333D01*
X73823380Y-105690523D01*
X73775000Y-105714714D01*
X73605666Y-105714714D01*
X74113666Y-105472809D02*
X74113666Y-105884047D01*
X74137857Y-105932428D01*
X74162047Y-105956619D01*
X74210428Y-105980809D01*
X74307190Y-105980809D01*
X74355571Y-105956619D01*
X74379761Y-105932428D01*
X74403952Y-105884047D01*
X74403952Y-105472809D01*
X74621666Y-105956619D02*
X74694238Y-105980809D01*
X74815190Y-105980809D01*
X74863571Y-105956619D01*
X74887761Y-105932428D01*
X74911952Y-105884047D01*
X74911952Y-105835666D01*
X74887761Y-105787285D01*
X74863571Y-105763095D01*
X74815190Y-105738904D01*
X74718428Y-105714714D01*
X74670047Y-105690523D01*
X74645857Y-105666333D01*
X74621666Y-105617952D01*
X74621666Y-105569571D01*
X74645857Y-105521190D01*
X74670047Y-105497000D01*
X74718428Y-105472809D01*
X74839380Y-105472809D01*
X74911952Y-105497000D01*
X73940333Y-105182428D02*
X73916142Y-105206619D01*
X73843571Y-105230809D01*
X73795190Y-105230809D01*
X73722619Y-105206619D01*
X73674238Y-105158238D01*
X73650047Y-105109857D01*
X73625857Y-105013095D01*
X73625857Y-104940523D01*
X73650047Y-104843761D01*
X73674238Y-104795380D01*
X73722619Y-104747000D01*
X73795190Y-104722809D01*
X73843571Y-104722809D01*
X73916142Y-104747000D01*
X73940333Y-104771190D01*
X74448333Y-105182428D02*
X74424142Y-105206619D01*
X74351571Y-105230809D01*
X74303190Y-105230809D01*
X74230619Y-105206619D01*
X74182238Y-105158238D01*
X74158047Y-105109857D01*
X74133857Y-105013095D01*
X74133857Y-104940523D01*
X74158047Y-104843761D01*
X74182238Y-104795380D01*
X74230619Y-104747000D01*
X74303190Y-104722809D01*
X74351571Y-104722809D01*
X74424142Y-104747000D01*
X74448333Y-104771190D01*
X74641857Y-104771190D02*
X74666047Y-104747000D01*
X74714428Y-104722809D01*
X74835380Y-104722809D01*
X74883761Y-104747000D01*
X74907952Y-104771190D01*
X74932142Y-104819571D01*
X74932142Y-104867952D01*
X74907952Y-104940523D01*
X74617666Y-105230809D01*
X74932142Y-105230809D01*
X71371857Y-104706619D02*
X71444428Y-104730809D01*
X71565380Y-104730809D01*
X71613761Y-104706619D01*
X71637952Y-104682428D01*
X71662142Y-104634047D01*
X71662142Y-104585666D01*
X71637952Y-104537285D01*
X71613761Y-104513095D01*
X71565380Y-104488904D01*
X71468619Y-104464714D01*
X71420238Y-104440523D01*
X71396047Y-104416333D01*
X71371857Y-104367952D01*
X71371857Y-104319571D01*
X71396047Y-104271190D01*
X71420238Y-104247000D01*
X71468619Y-104222809D01*
X71589571Y-104222809D01*
X71662142Y-104247000D01*
X72049190Y-104464714D02*
X72121761Y-104488904D01*
X72145952Y-104513095D01*
X72170142Y-104561476D01*
X72170142Y-104634047D01*
X72145952Y-104682428D01*
X72121761Y-104706619D01*
X72073380Y-104730809D01*
X71879857Y-104730809D01*
X71879857Y-104222809D01*
X72049190Y-104222809D01*
X72097571Y-104247000D01*
X72121761Y-104271190D01*
X72145952Y-104319571D01*
X72145952Y-104367952D01*
X72121761Y-104416333D01*
X72097571Y-104440523D01*
X72049190Y-104464714D01*
X71879857Y-104464714D01*
X72387857Y-104222809D02*
X72387857Y-104634047D01*
X72412047Y-104682428D01*
X72436238Y-104706619D01*
X72484619Y-104730809D01*
X72581380Y-104730809D01*
X72629761Y-104706619D01*
X72653952Y-104682428D01*
X72678142Y-104634047D01*
X72678142Y-104222809D01*
X73186142Y-104730809D02*
X72895857Y-104730809D01*
X73041000Y-104730809D02*
X73041000Y-104222809D01*
X72992619Y-104295380D01*
X72944238Y-104343761D01*
X72895857Y-104367952D01*
X73650047Y-104230809D02*
X73650047Y-103722809D01*
X73771000Y-103722809D01*
X73843571Y-103747000D01*
X73891952Y-103795380D01*
X73916142Y-103843761D01*
X73940333Y-103940523D01*
X73940333Y-104013095D01*
X73916142Y-104109857D01*
X73891952Y-104158238D01*
X73843571Y-104206619D01*
X73771000Y-104230809D01*
X73650047Y-104230809D01*
X74158047Y-104230809D02*
X74158047Y-103722809D01*
X74351571Y-103722809D01*
X74399952Y-103747000D01*
X74424142Y-103771190D01*
X74448333Y-103819571D01*
X74448333Y-103892142D01*
X74424142Y-103940523D01*
X74399952Y-103964714D01*
X74351571Y-103988904D01*
X74158047Y-103988904D01*
X74641857Y-103771190D02*
X74666047Y-103747000D01*
X74714428Y-103722809D01*
X74835380Y-103722809D01*
X74883761Y-103747000D01*
X74907952Y-103771190D01*
X74932142Y-103819571D01*
X74932142Y-103867952D01*
X74907952Y-103940523D01*
X74617666Y-104230809D01*
X74932142Y-104230809D01*
X71887952Y-103730809D02*
X71887952Y-103222809D01*
X72008904Y-103222809D01*
X72081476Y-103247000D01*
X72129857Y-103295380D01*
X72154047Y-103343761D01*
X72178238Y-103440523D01*
X72178238Y-103513095D01*
X72154047Y-103609857D01*
X72129857Y-103658238D01*
X72081476Y-103706619D01*
X72008904Y-103730809D01*
X71887952Y-103730809D01*
X72395952Y-103730809D02*
X72395952Y-103222809D01*
X72686238Y-103730809D01*
X72686238Y-103222809D01*
X73194238Y-103730809D02*
X72903952Y-103730809D01*
X73049095Y-103730809D02*
X73049095Y-103222809D01*
X73000714Y-103295380D01*
X72952333Y-103343761D01*
X72903952Y-103367952D01*
X73650047Y-103230809D02*
X73650047Y-102722809D01*
X73771000Y-102722809D01*
X73843571Y-102747000D01*
X73891952Y-102795380D01*
X73916142Y-102843761D01*
X73940333Y-102940523D01*
X73940333Y-103013095D01*
X73916142Y-103109857D01*
X73891952Y-103158238D01*
X73843571Y-103206619D01*
X73771000Y-103230809D01*
X73650047Y-103230809D01*
X74158047Y-103230809D02*
X74158047Y-102722809D01*
X74351571Y-102722809D01*
X74399952Y-102747000D01*
X74424142Y-102771190D01*
X74448333Y-102819571D01*
X74448333Y-102892142D01*
X74424142Y-102940523D01*
X74399952Y-102964714D01*
X74351571Y-102988904D01*
X74158047Y-102988904D01*
X74932142Y-103230809D02*
X74641857Y-103230809D01*
X74787000Y-103230809D02*
X74787000Y-102722809D01*
X74738619Y-102795380D01*
X74690238Y-102843761D01*
X74641857Y-102867952D01*
X71887952Y-102730809D02*
X71887952Y-102222809D01*
X72008904Y-102222809D01*
X72081476Y-102247000D01*
X72129857Y-102295380D01*
X72154047Y-102343761D01*
X72178238Y-102440523D01*
X72178238Y-102513095D01*
X72154047Y-102609857D01*
X72129857Y-102658238D01*
X72081476Y-102706619D01*
X72008904Y-102730809D01*
X71887952Y-102730809D01*
X72395952Y-102730809D02*
X72395952Y-102222809D01*
X72686238Y-102730809D01*
X72686238Y-102222809D01*
X72903952Y-102271190D02*
X72928142Y-102247000D01*
X72976523Y-102222809D01*
X73097476Y-102222809D01*
X73145857Y-102247000D01*
X73170047Y-102271190D01*
X73194238Y-102319571D01*
X73194238Y-102367952D01*
X73170047Y-102440523D01*
X72879761Y-102730809D01*
X73194238Y-102730809D01*
X73940333Y-102182428D02*
X73916142Y-102206619D01*
X73843571Y-102230809D01*
X73795190Y-102230809D01*
X73722619Y-102206619D01*
X73674238Y-102158238D01*
X73650047Y-102109857D01*
X73625857Y-102013095D01*
X73625857Y-101940523D01*
X73650047Y-101843761D01*
X73674238Y-101795380D01*
X73722619Y-101747000D01*
X73795190Y-101722809D01*
X73843571Y-101722809D01*
X73916142Y-101747000D01*
X73940333Y-101771190D01*
X74448333Y-102182428D02*
X74424142Y-102206619D01*
X74351571Y-102230809D01*
X74303190Y-102230809D01*
X74230619Y-102206619D01*
X74182238Y-102158238D01*
X74158047Y-102109857D01*
X74133857Y-102013095D01*
X74133857Y-101940523D01*
X74158047Y-101843761D01*
X74182238Y-101795380D01*
X74230619Y-101747000D01*
X74303190Y-101722809D01*
X74351571Y-101722809D01*
X74424142Y-101747000D01*
X74448333Y-101771190D01*
X74932142Y-102230809D02*
X74641857Y-102230809D01*
X74787000Y-102230809D02*
X74787000Y-101722809D01*
X74738619Y-101795380D01*
X74690238Y-101843761D01*
X74641857Y-101867952D01*
X71371857Y-101706619D02*
X71444428Y-101730809D01*
X71565380Y-101730809D01*
X71613761Y-101706619D01*
X71637952Y-101682428D01*
X71662142Y-101634047D01*
X71662142Y-101585666D01*
X71637952Y-101537285D01*
X71613761Y-101513095D01*
X71565380Y-101488904D01*
X71468619Y-101464714D01*
X71420238Y-101440523D01*
X71396047Y-101416333D01*
X71371857Y-101367952D01*
X71371857Y-101319571D01*
X71396047Y-101271190D01*
X71420238Y-101247000D01*
X71468619Y-101222809D01*
X71589571Y-101222809D01*
X71662142Y-101247000D01*
X72049190Y-101464714D02*
X72121761Y-101488904D01*
X72145952Y-101513095D01*
X72170142Y-101561476D01*
X72170142Y-101634047D01*
X72145952Y-101682428D01*
X72121761Y-101706619D01*
X72073380Y-101730809D01*
X71879857Y-101730809D01*
X71879857Y-101222809D01*
X72049190Y-101222809D01*
X72097571Y-101247000D01*
X72121761Y-101271190D01*
X72145952Y-101319571D01*
X72145952Y-101367952D01*
X72121761Y-101416333D01*
X72097571Y-101440523D01*
X72049190Y-101464714D01*
X71879857Y-101464714D01*
X72387857Y-101222809D02*
X72387857Y-101634047D01*
X72412047Y-101682428D01*
X72436238Y-101706619D01*
X72484619Y-101730809D01*
X72581380Y-101730809D01*
X72629761Y-101706619D01*
X72653952Y-101682428D01*
X72678142Y-101634047D01*
X72678142Y-101222809D01*
X72895857Y-101271190D02*
X72920047Y-101247000D01*
X72968428Y-101222809D01*
X73089380Y-101222809D01*
X73137761Y-101247000D01*
X73161952Y-101271190D01*
X73186142Y-101319571D01*
X73186142Y-101367952D01*
X73161952Y-101440523D01*
X72871666Y-101730809D01*
X73186142Y-101730809D01*
X73097666Y-100472809D02*
X73267000Y-100980809D01*
X73436333Y-100472809D01*
X73775000Y-100714714D02*
X73847571Y-100738904D01*
X73871761Y-100763095D01*
X73895952Y-100811476D01*
X73895952Y-100884047D01*
X73871761Y-100932428D01*
X73847571Y-100956619D01*
X73799190Y-100980809D01*
X73605666Y-100980809D01*
X73605666Y-100472809D01*
X73775000Y-100472809D01*
X73823380Y-100497000D01*
X73847571Y-100521190D01*
X73871761Y-100569571D01*
X73871761Y-100617952D01*
X73847571Y-100666333D01*
X73823380Y-100690523D01*
X73775000Y-100714714D01*
X73605666Y-100714714D01*
X74113666Y-100472809D02*
X74113666Y-100884047D01*
X74137857Y-100932428D01*
X74162047Y-100956619D01*
X74210428Y-100980809D01*
X74307190Y-100980809D01*
X74355571Y-100956619D01*
X74379761Y-100932428D01*
X74403952Y-100884047D01*
X74403952Y-100472809D01*
X74621666Y-100956619D02*
X74694238Y-100980809D01*
X74815190Y-100980809D01*
X74863571Y-100956619D01*
X74887761Y-100932428D01*
X74911952Y-100884047D01*
X74911952Y-100835666D01*
X74887761Y-100787285D01*
X74863571Y-100763095D01*
X74815190Y-100738904D01*
X74718428Y-100714714D01*
X74670047Y-100690523D01*
X74645857Y-100666333D01*
X74621666Y-100617952D01*
X74621666Y-100569571D01*
X74645857Y-100521190D01*
X74670047Y-100497000D01*
X74718428Y-100472809D01*
X74839380Y-100472809D01*
X74911952Y-100497000D01*
X73891952Y-99747000D02*
X73843571Y-99722809D01*
X73771000Y-99722809D01*
X73698428Y-99747000D01*
X73650047Y-99795380D01*
X73625857Y-99843761D01*
X73601666Y-99940523D01*
X73601666Y-100013095D01*
X73625857Y-100109857D01*
X73650047Y-100158238D01*
X73698428Y-100206619D01*
X73771000Y-100230809D01*
X73819380Y-100230809D01*
X73891952Y-100206619D01*
X73916142Y-100182428D01*
X73916142Y-100013095D01*
X73819380Y-100013095D01*
X74133857Y-100230809D02*
X74133857Y-99722809D01*
X74424142Y-100230809D01*
X74424142Y-99722809D01*
X74666047Y-100230809D02*
X74666047Y-99722809D01*
X74787000Y-99722809D01*
X74859571Y-99747000D01*
X74907952Y-99795380D01*
X74932142Y-99843761D01*
X74956333Y-99940523D01*
X74956333Y-100013095D01*
X74932142Y-100109857D01*
X74907952Y-100158238D01*
X74859571Y-100206619D01*
X74787000Y-100230809D01*
X74666047Y-100230809D01*
X70363666Y-107194047D02*
X70363666Y-106952142D01*
X70508809Y-107242428D02*
X70000809Y-107073095D01*
X70508809Y-106903761D01*
X70170142Y-106516714D02*
X70508809Y-106516714D01*
X69976619Y-106637666D02*
X70339476Y-106758619D01*
X70339476Y-106444142D01*
X70000809Y-106153857D02*
X70000809Y-106105476D01*
X70025000Y-106057095D01*
X70049190Y-106032904D01*
X70097571Y-106008714D01*
X70194333Y-105984523D01*
X70315285Y-105984523D01*
X70412047Y-106008714D01*
X70460428Y-106032904D01*
X70484619Y-106057095D01*
X70508809Y-106105476D01*
X70508809Y-106153857D01*
X70484619Y-106202238D01*
X70460428Y-106226428D01*
X70412047Y-106250619D01*
X70315285Y-106274809D01*
X70194333Y-106274809D01*
X70097571Y-106250619D01*
X70049190Y-106226428D01*
X70025000Y-106202238D01*
X70000809Y-106153857D01*
X70315285Y-105766809D02*
X70315285Y-105379761D01*
X70000809Y-105041095D02*
X70000809Y-104992714D01*
X70025000Y-104944333D01*
X70049190Y-104920142D01*
X70097571Y-104895952D01*
X70194333Y-104871761D01*
X70315285Y-104871761D01*
X70412047Y-104895952D01*
X70460428Y-104920142D01*
X70484619Y-104944333D01*
X70508809Y-104992714D01*
X70508809Y-105041095D01*
X70484619Y-105089476D01*
X70460428Y-105113666D01*
X70412047Y-105137857D01*
X70315285Y-105162047D01*
X70194333Y-105162047D01*
X70097571Y-105137857D01*
X70049190Y-105113666D01*
X70025000Y-105089476D01*
X70000809Y-105041095D01*
X70000809Y-104557285D02*
X70000809Y-104508904D01*
X70025000Y-104460523D01*
X70049190Y-104436333D01*
X70097571Y-104412142D01*
X70194333Y-104387952D01*
X70315285Y-104387952D01*
X70412047Y-104412142D01*
X70460428Y-104436333D01*
X70484619Y-104460523D01*
X70508809Y-104508904D01*
X70508809Y-104557285D01*
X70484619Y-104605666D01*
X70460428Y-104629857D01*
X70412047Y-104654047D01*
X70315285Y-104678238D01*
X70194333Y-104678238D01*
X70097571Y-104654047D01*
X70049190Y-104629857D01*
X70025000Y-104605666D01*
X70000809Y-104557285D01*
X70508809Y-103904142D02*
X70508809Y-104194428D01*
X70508809Y-104049285D02*
X70000809Y-104049285D01*
X70073380Y-104097666D01*
X70121761Y-104146047D01*
X70145952Y-104194428D01*
X70508809Y-103420333D02*
X70508809Y-103710619D01*
X70508809Y-103565476D02*
X70000809Y-103565476D01*
X70073380Y-103613857D01*
X70121761Y-103662238D01*
X70145952Y-103710619D01*
X70508809Y-103178428D02*
X70508809Y-103081666D01*
X70484619Y-103033285D01*
X70460428Y-103009095D01*
X70387857Y-102960714D01*
X70291095Y-102936523D01*
X70097571Y-102936523D01*
X70049190Y-102960714D01*
X70025000Y-102984904D01*
X70000809Y-103033285D01*
X70000809Y-103130047D01*
X70025000Y-103178428D01*
X70049190Y-103202619D01*
X70097571Y-103226809D01*
X70218523Y-103226809D01*
X70266904Y-103202619D01*
X70291095Y-103178428D01*
X70315285Y-103130047D01*
X70315285Y-103033285D01*
X70291095Y-102984904D01*
X70266904Y-102960714D01*
X70218523Y-102936523D01*
X70315285Y-102718809D02*
X70315285Y-102331761D01*
X70363666Y-102114047D02*
X70363666Y-101872142D01*
X70508809Y-102162428D02*
X70000809Y-101993095D01*
X70508809Y-101823761D01*
X70000809Y-101412523D02*
X70000809Y-101654428D01*
X70242714Y-101678619D01*
X70218523Y-101654428D01*
X70194333Y-101606047D01*
X70194333Y-101485095D01*
X70218523Y-101436714D01*
X70242714Y-101412523D01*
X70291095Y-101388333D01*
X70412047Y-101388333D01*
X70460428Y-101412523D01*
X70484619Y-101436714D01*
X70508809Y-101485095D01*
X70508809Y-101606047D01*
X70484619Y-101654428D01*
X70460428Y-101678619D01*
X70049190Y-101194809D02*
X70025000Y-101170619D01*
X70000809Y-101122238D01*
X70000809Y-101001285D01*
X70025000Y-100952904D01*
X70049190Y-100928714D01*
X70097571Y-100904523D01*
X70145952Y-100904523D01*
X70218523Y-100928714D01*
X70508809Y-101219000D01*
X70508809Y-100904523D01*
X70315285Y-100686809D02*
X70315285Y-100299761D01*
X70508809Y-99791761D02*
X70508809Y-100082047D01*
X70508809Y-99936904D02*
X70000809Y-99936904D01*
X70073380Y-99985285D01*
X70121761Y-100033666D01*
X70145952Y-100082047D01*
X70049190Y-99598238D02*
X70025000Y-99574047D01*
X70000809Y-99525666D01*
X70000809Y-99404714D01*
X70025000Y-99356333D01*
X70049190Y-99332142D01*
X70097571Y-99307952D01*
X70145952Y-99307952D01*
X70218523Y-99332142D01*
X70508809Y-99622428D01*
X70508809Y-99307952D01*
D10*
X75389619Y-88174285D02*
X74373619Y-88174285D01*
X74373619Y-87787238D01*
X74422000Y-87690476D01*
X74470380Y-87642095D01*
X74567142Y-87593714D01*
X74712285Y-87593714D01*
X74809047Y-87642095D01*
X74857428Y-87690476D01*
X74905809Y-87787238D01*
X74905809Y-88174285D01*
X74373619Y-86964761D02*
X74373619Y-86771238D01*
X74422000Y-86674476D01*
X74518761Y-86577714D01*
X74712285Y-86529333D01*
X75050952Y-86529333D01*
X75244476Y-86577714D01*
X75341238Y-86674476D01*
X75389619Y-86771238D01*
X75389619Y-86964761D01*
X75341238Y-87061523D01*
X75244476Y-87158285D01*
X75050952Y-87206666D01*
X74712285Y-87206666D01*
X74518761Y-87158285D01*
X74422000Y-87061523D01*
X74373619Y-86964761D01*
X74373619Y-86190666D02*
X75389619Y-85948761D01*
X74663904Y-85755238D01*
X75389619Y-85561714D01*
X74373619Y-85319809D01*
X74857428Y-84932761D02*
X74857428Y-84594095D01*
X75389619Y-84448952D02*
X75389619Y-84932761D01*
X74373619Y-84932761D01*
X74373619Y-84448952D01*
X75389619Y-83432952D02*
X74905809Y-83771619D01*
X75389619Y-84013523D02*
X74373619Y-84013523D01*
X74373619Y-83626476D01*
X74422000Y-83529714D01*
X74470380Y-83481333D01*
X74567142Y-83432952D01*
X74712285Y-83432952D01*
X74809047Y-83481333D01*
X74857428Y-83529714D01*
X74905809Y-83626476D01*
X74905809Y-84013523D01*
X75389619Y-82465333D02*
X75389619Y-83045904D01*
X75389619Y-82755619D02*
X74373619Y-82755619D01*
X74518761Y-82852380D01*
X74615523Y-82949142D01*
X74663904Y-83045904D01*
X74373619Y-78679523D02*
X75196095Y-78679523D01*
X75292857Y-78631142D01*
X75341238Y-78582761D01*
X75389619Y-78486000D01*
X75389619Y-78292476D01*
X75341238Y-78195714D01*
X75292857Y-78147333D01*
X75196095Y-78098952D01*
X74373619Y-78098952D01*
X75341238Y-77663523D02*
X75389619Y-77518380D01*
X75389619Y-77276476D01*
X75341238Y-77179714D01*
X75292857Y-77131333D01*
X75196095Y-77082952D01*
X75099333Y-77082952D01*
X75002571Y-77131333D01*
X74954190Y-77179714D01*
X74905809Y-77276476D01*
X74857428Y-77470000D01*
X74809047Y-77566761D01*
X74760666Y-77615142D01*
X74663904Y-77663523D01*
X74567142Y-77663523D01*
X74470380Y-77615142D01*
X74422000Y-77566761D01*
X74373619Y-77470000D01*
X74373619Y-77228095D01*
X74422000Y-77082952D01*
X74857428Y-76647523D02*
X74857428Y-76308857D01*
X75389619Y-76163714D02*
X75389619Y-76647523D01*
X74373619Y-76647523D01*
X74373619Y-76163714D01*
X75389619Y-75147714D02*
X74905809Y-75486380D01*
X75389619Y-75728285D02*
X74373619Y-75728285D01*
X74373619Y-75341238D01*
X74422000Y-75244476D01*
X74470380Y-75196095D01*
X74567142Y-75147714D01*
X74712285Y-75147714D01*
X74809047Y-75196095D01*
X74857428Y-75244476D01*
X74905809Y-75341238D01*
X74905809Y-75728285D01*
X75389619Y-74180095D02*
X75389619Y-74760666D01*
X75389619Y-74470380D02*
X74373619Y-74470380D01*
X74518761Y-74567142D01*
X74615523Y-74663904D01*
X74663904Y-74760666D01*
D21*
X87757000Y-131789714D02*
X87503000Y-131426857D01*
X87321571Y-131789714D02*
X87321571Y-131027714D01*
X87611857Y-131027714D01*
X87684428Y-131064000D01*
X87720714Y-131100285D01*
X87757000Y-131172857D01*
X87757000Y-131281714D01*
X87720714Y-131354285D01*
X87684428Y-131390571D01*
X87611857Y-131426857D01*
X87321571Y-131426857D01*
X88192428Y-131354285D02*
X88119857Y-131318000D01*
X88083571Y-131281714D01*
X88047285Y-131209142D01*
X88047285Y-131172857D01*
X88083571Y-131100285D01*
X88119857Y-131064000D01*
X88192428Y-131027714D01*
X88337571Y-131027714D01*
X88410142Y-131064000D01*
X88446428Y-131100285D01*
X88482714Y-131172857D01*
X88482714Y-131209142D01*
X88446428Y-131281714D01*
X88410142Y-131318000D01*
X88337571Y-131354285D01*
X88192428Y-131354285D01*
X88119857Y-131390571D01*
X88083571Y-131426857D01*
X88047285Y-131499428D01*
X88047285Y-131644571D01*
X88083571Y-131717142D01*
X88119857Y-131753428D01*
X88192428Y-131789714D01*
X88337571Y-131789714D01*
X88410142Y-131753428D01*
X88446428Y-131717142D01*
X88482714Y-131644571D01*
X88482714Y-131499428D01*
X88446428Y-131426857D01*
X88410142Y-131390571D01*
X88337571Y-131354285D01*
X109601000Y-131789714D02*
X109347000Y-131426857D01*
X109165571Y-131789714D02*
X109165571Y-131027714D01*
X109455857Y-131027714D01*
X109528428Y-131064000D01*
X109564714Y-131100285D01*
X109601000Y-131172857D01*
X109601000Y-131281714D01*
X109564714Y-131354285D01*
X109528428Y-131390571D01*
X109455857Y-131426857D01*
X109165571Y-131426857D01*
X109963857Y-131789714D02*
X110109000Y-131789714D01*
X110181571Y-131753428D01*
X110217857Y-131717142D01*
X110290428Y-131608285D01*
X110326714Y-131463142D01*
X110326714Y-131172857D01*
X110290428Y-131100285D01*
X110254142Y-131064000D01*
X110181571Y-131027714D01*
X110036428Y-131027714D01*
X109963857Y-131064000D01*
X109927571Y-131100285D01*
X109891285Y-131172857D01*
X109891285Y-131354285D01*
X109927571Y-131426857D01*
X109963857Y-131463142D01*
X110036428Y-131499428D01*
X110181571Y-131499428D01*
X110254142Y-131463142D01*
X110290428Y-131426857D01*
X110326714Y-131354285D01*
X84600142Y-118073714D02*
X84346142Y-117710857D01*
X84164714Y-118073714D02*
X84164714Y-117311714D01*
X84455000Y-117311714D01*
X84527571Y-117348000D01*
X84563857Y-117384285D01*
X84600142Y-117456857D01*
X84600142Y-117565714D01*
X84563857Y-117638285D01*
X84527571Y-117674571D01*
X84455000Y-117710857D01*
X84164714Y-117710857D01*
X85325857Y-118073714D02*
X84890428Y-118073714D01*
X85108142Y-118073714D02*
X85108142Y-117311714D01*
X85035571Y-117420571D01*
X84963000Y-117493142D01*
X84890428Y-117529428D01*
X86051571Y-118073714D02*
X85616142Y-118073714D01*
X85833857Y-118073714D02*
X85833857Y-117311714D01*
X85761285Y-117420571D01*
X85688714Y-117493142D01*
X85616142Y-117529428D01*
D10*
X75855285Y-132442857D02*
X75806904Y-132491238D01*
X75661761Y-132539619D01*
X75565000Y-132539619D01*
X75419857Y-132491238D01*
X75323095Y-132394476D01*
X75274714Y-132297714D01*
X75226333Y-132104190D01*
X75226333Y-131959047D01*
X75274714Y-131765523D01*
X75323095Y-131668761D01*
X75419857Y-131572000D01*
X75565000Y-131523619D01*
X75661761Y-131523619D01*
X75806904Y-131572000D01*
X75855285Y-131620380D01*
X76484238Y-131523619D02*
X76677761Y-131523619D01*
X76774523Y-131572000D01*
X76871285Y-131668761D01*
X76919666Y-131862285D01*
X76919666Y-132200952D01*
X76871285Y-132394476D01*
X76774523Y-132491238D01*
X76677761Y-132539619D01*
X76484238Y-132539619D01*
X76387476Y-132491238D01*
X76290714Y-132394476D01*
X76242333Y-132200952D01*
X76242333Y-131862285D01*
X76290714Y-131668761D01*
X76387476Y-131572000D01*
X76484238Y-131523619D01*
X77355095Y-132539619D02*
X77355095Y-131523619D01*
X77935666Y-132539619D01*
X77935666Y-131523619D01*
X78903285Y-131523619D02*
X78419476Y-131523619D01*
X78371095Y-132007428D01*
X78419476Y-131959047D01*
X78516238Y-131910666D01*
X78758142Y-131910666D01*
X78854904Y-131959047D01*
X78903285Y-132007428D01*
X78951666Y-132104190D01*
X78951666Y-132346095D01*
X78903285Y-132442857D01*
X78854904Y-132491238D01*
X78758142Y-132539619D01*
X78516238Y-132539619D01*
X78419476Y-132491238D01*
X78371095Y-132442857D01*
M02*
