M48
; DRILL file {KiCad 5.1.0-rc2-unknown-036be7d~80~ubuntu16.04.1} date 17.06.2022 (пт) 14:26:00 EEST
; FORMAT={-:-/ absolute / inch / decimal}
; #@! TF.CreationDate,2022-06-17T14:26:00+03:00*
; #@! TF.GenerationSoftware,Kicad,Pcbnew,5.1.0-rc2-unknown-036be7d~80~ubuntu16.04.1
; #@! TF.FileFunction,Plated,1,2,PTH
FMAT,2
INCH
T1C0.0157
T2C0.0236
T3C0.0315
T4C0.0394
T5C0.0512
%
G90
G05
T1
X2.755Y-3.49
X2.755Y-3.77
X2.77Y-2.69
X2.77Y-4.35
X2.77Y-4.45
X2.775Y-3.985
X2.775Y-4.135
X2.775Y-4.87
X2.785Y-2.885
X2.785Y-3.235
X2.825Y-3.01
X2.825Y-3.16
X2.83Y-3.365
X2.84Y-2.795
X2.85Y-4.065
X2.88Y-4.385
X2.955Y-4.02
X2.96Y-4.115
X3.07Y-4.73
X3.41Y-4.67
X3.41Y-4.925
X3.475Y-4.04
X3.475Y-4.24
X3.495Y-4.635
X3.51Y-5.135
X3.53Y-3.905
X3.58Y-4.385
X3.585Y-4.145
X3.6Y-3.945
X3.61Y-3.54
X3.61Y-5.135
X3.615Y-4.335
X3.635Y-3.84
X3.64Y-3.92
X3.64Y-4.885
X3.65Y-4.375
X3.68Y-4.205
X3.705Y-4.0
X3.705Y-4.93
X3.715Y-4.17
X3.72Y-3.725
X3.72Y-3.84
X3.725Y-5.215
X3.73Y-4.97
X3.75Y-5.115
X3.76Y-4.32
X3.76Y-4.385
X3.785Y-5.015
X3.79Y-4.355
X3.81Y-3.515
X3.83Y-5.07
X3.86Y-5.135
X3.86Y-5.19
X3.955Y-4.145
X3.97Y-4.625
X3.97Y-4.805
X4.0Y-4.125
X4.015Y-3.91
X4.035Y-4.58
X4.035Y-4.665
X4.085Y-4.625
X4.11Y-4.145
X4.135Y-4.925
X4.165Y-4.89
X4.18Y-4.98
X4.19Y-4.635
X4.2Y-4.365
X4.23Y-4.915
X4.33Y-4.665
X4.385Y-3.545
X4.39Y-4.4
X4.39Y-4.445
X4.405Y-4.215
X4.435Y-3.77
X4.44Y-4.135
X4.45Y-3.485
X4.49Y-5.065
X4.505Y-4.16
X4.505Y-4.21
X4.535Y-4.365
X4.535Y-4.41
X4.545Y-3.35
X4.565Y-5.205
X4.63Y-3.75
X4.635Y-4.21
X4.67Y-3.105
X4.685Y-2.625
X4.7Y-3.28
X4.7Y-4.04
X4.72Y-3.105
X4.74Y-4.13
X4.755Y-4.385
X4.77Y-4.27
X4.855Y-4.13
X4.86Y-4.9
X4.89Y-3.445
X4.89Y-3.945
X4.89Y-4.09
T2
X3.005Y-3.405
X3.005Y-3.515
X3.095Y-3.785
X3.135Y-4.905
X3.135Y-4.955
X3.145Y-3.95
X3.145Y-4.0
X3.145Y-4.135
X3.145Y-4.185
X3.15Y-4.71
X3.15Y-4.775
X3.155Y-3.88
X3.16Y-4.285
X3.195Y-3.92
X3.215Y-4.155
X3.215Y-4.205
X3.215Y-4.285
X3.27Y-3.71
X3.385Y-4.21
X3.415Y-4.17
X3.45Y-3.89
X3.49Y-3.855
X3.855Y-3.855
X3.91Y-3.855
X3.91Y-4.36
X3.96Y-4.36
X3.99Y-4.9
X4.055Y-3.735
X4.23Y-4.08
X4.245Y-3.855
X4.285Y-4.08
X4.29Y-3.74
X4.295Y-3.855
X4.49Y-4.915
X4.49Y-4.965
X4.645Y-4.74
X4.645Y-4.795
X4.755Y-3.825
X4.77Y-3.505
X4.805Y-3.775
X4.81Y-3.905
X4.81Y-3.955
X4.835Y-2.7274
X4.835Y-2.7766
X4.835Y-2.8258
X4.835Y-2.875
X4.835Y-2.9242
X4.835Y-2.9734
T4
X4.77Y-4.665
X4.77Y-4.765
X4.77Y-4.865
X3.77Y-5.295
X3.87Y-5.295
X3.97Y-5.295
X4.07Y-5.295
X4.17Y-5.295
X4.27Y-5.295
X4.37Y-5.295
X4.47Y-5.295
X4.57Y-5.295
X4.67Y-5.295
X4.77Y-5.295
X4.87Y-5.295
X2.77Y-5.295
X2.87Y-5.295
X2.97Y-5.295
X3.07Y-5.295
X3.17Y-5.295
X3.27Y-5.295
X3.37Y-5.295
X3.47Y-5.295
X3.57Y-5.295
X3.67Y-5.295
X2.87Y-4.515
X2.97Y-4.515
X3.07Y-4.515
X3.17Y-4.515
X3.27Y-4.515
X3.37Y-4.515
X3.47Y-4.515
X3.57Y-4.515
X3.67Y-4.515
X3.77Y-4.515
X3.87Y-4.515
X3.97Y-4.515
X4.07Y-4.515
X4.17Y-4.515
X4.27Y-4.515
X4.37Y-4.515
X4.47Y-4.515
X4.57Y-4.515
X4.67Y-4.515
X4.77Y-4.515
X2.87Y-3.615
X2.97Y-3.615
X3.07Y-3.615
X3.17Y-3.615
X3.27Y-3.615
X3.37Y-3.615
X3.47Y-3.615
X3.57Y-3.615
X3.67Y-3.615
X3.77Y-3.615
X3.87Y-3.615
X3.97Y-3.615
X4.07Y-3.615
X4.17Y-3.615
X4.27Y-3.615
X4.37Y-3.615
X4.47Y-3.615
X4.57Y-3.615
X4.67Y-3.615
X4.77Y-3.615
X2.87Y-4.665
X2.87Y-4.765
X2.87Y-4.865
T5
X3.1938Y-2.8456
X3.1938Y-3.318
X3.43Y-3.3968
X3.6662Y-2.8456
X3.6662Y-3.318
X3.9738Y-2.8456
X3.9738Y-3.318
X4.21Y-3.3968
X4.4462Y-2.8456
X4.4462Y-3.318
X4.0131Y-2.545
X4.21Y-2.545
X4.4069Y-2.545
X3.2331Y-2.545
X3.43Y-2.545
X3.6269Y-2.545
T3
G00X2.8515Y-3.8949
M15
G01X2.8279Y-3.8949
M16
G05
G00X2.8515Y-4.2351
M15
G01X2.8279Y-4.2351
M16
G05
G00X3.022Y-3.8949
M15
G01X2.9866Y-3.8949
M16
G05
G00X3.022Y-4.2351
M15
G01X2.9866Y-4.2351
M16
G05
T0
M30
